<svg xmlns="http://www.w3.org/2000/svg" xmlns:xlink="http://www.w3.org/1999/xlink" width="85.002" height="83.342" viewBox="0 0 85.002 83.342"><defs><style>.a{fill:url(#a);}</style><linearGradient id="a" x1="-3.542" y1="1.582" x2="2.646" y2="1.582" gradientUnits="objectBoundingBox"><stop offset="0" stop-color="#fd747f"/><stop offset="1" stop-color="#6b1d5f"/></linearGradient></defs><g transform="translate(0 0)"><path class="a" d="M336.948,131.1a8.548,8.548,0,1,0,8.548,8.548A8.557,8.557,0,0,0,336.948,131.1Zm0,13.777a5.229,5.229,0,1,1,5.229-5.229A5.228,5.228,0,0,1,336.948,144.877Z" transform="translate(-273.89 -110.169)"/><path class="a" d="M364.27,446.092c-.05-.1-.1-.2-.149-.282-.066-.083-.133-.183-.2-.249a1.456,1.456,0,0,0-.249-.2.921.921,0,0,0-.282-.149,1,1,0,0,0-.315-.1,1.421,1.421,0,0,0-.647,0,1.157,1.157,0,0,0-.315.1c-.1.05-.2.1-.282.149-.083.066-.183.133-.249.2a1.458,1.458,0,0,0-.2.249.923.923,0,0,0-.149.282,1,1,0,0,0-.1.315,2.043,2.043,0,0,0-.033.332,2.5,2.5,0,0,0,.033.332,1.157,1.157,0,0,0,.1.315c.05.1.1.2.149.282.066.083.133.183.2.249a.77.77,0,0,1,.116.116c.05.033.083.066.133.1a.924.924,0,0,0,.282.149,1,1,0,0,0,.315.1,2.044,2.044,0,0,0,.332.033,2.493,2.493,0,0,0,.332-.033,1.156,1.156,0,0,0,.315-.1c.1-.05.2-.1.282-.149.05-.033.083-.066.133-.1a.387.387,0,0,0,.116-.116,1.309,1.309,0,0,0,.2-.249.923.923,0,0,0,.149-.282,1,1,0,0,0,.1-.315,2.047,2.047,0,0,0,.033-.332,2.253,2.253,0,0,0-.033-.332A1.769,1.769,0,0,0,364.27,446.092Z" transform="translate(-301.162 -372.028)"/><path class="a" d="M206.887,50.392c-.05-.1-.1-.2-.149-.282-.066-.083-.133-.183-.2-.249a1.456,1.456,0,0,0-.249-.2.923.923,0,0,0-.282-.149,1.754,1.754,0,0,0-.315-.1,1.421,1.421,0,0,0-.647,0,1.157,1.157,0,0,0-.315.1c-.1.05-.2.1-.282.149a1.633,1.633,0,0,0-.249.2,2.891,2.891,0,0,0-.216.249.923.923,0,0,0-.149.282c-.033.1-.066.2-.1.315a1.677,1.677,0,0,0,0,.664,1.157,1.157,0,0,0,.1.315c.05.1.1.2.149.282a1.55,1.55,0,0,0,.216.249,2.618,2.618,0,0,0,.249.2.923.923,0,0,0,.282.149,1.755,1.755,0,0,0,.315.1,1.075,1.075,0,0,0,.315.033,2.034,2.034,0,0,0,.315-.033,1.157,1.157,0,0,0,.315-.1c.1-.05.2-.1.282-.149a1.632,1.632,0,0,0,.249-.2,1.459,1.459,0,0,0,.2-.249,1.164,1.164,0,0,0,.149-.282c.033-.1.066-.2.1-.315a1.677,1.677,0,0,0,0-.664A1.752,1.752,0,0,0,206.887,50.392Z" transform="translate(-169.888 -42.009)"/><path class="a" d="M75.707,12.353A9.571,9.571,0,0,0,66.428,5H14.341A14.37,14.37,0,0,0,0,19.358V71.445a9.558,9.558,0,0,0,9.279,9.544,9.576,9.576,0,0,0,9.3,7.353H75.458A9.556,9.556,0,0,0,85,78.8V21.9A9.583,9.583,0,0,0,75.707,12.353Zm5.959,66.412a6.227,6.227,0,0,1-6.225,6.225H18.557a6.254,6.254,0,0,1-5.826-4.017,6.062,6.062,0,0,1-.4-2.208v-8.8L31.372,37.683a3.119,3.119,0,0,1,2.755-1.544,3.085,3.085,0,0,1,2.689,1.627l8.2,15.055L56.934,74.715a1.656,1.656,0,0,0,1.461.863,1.717,1.717,0,0,0,.8-.2,1.662,1.662,0,0,0,.664-2.257l-3.868-7.1a6.786,6.786,0,0,0,4.7-1.577l7.469-6.191a3.15,3.15,0,0,1,4.116.1l.382.365,3.32,3.038,5.693,5.229V78.765Zm0-16.283-5.693-5.229-3.32-2.523a6.44,6.44,0,0,0-6.623.979L58.56,61.9a3.482,3.482,0,0,1-2.938.747,3.536,3.536,0,0,1-2.457-1.793l-5.245-9.611L45,45.866h0l-5.278-9.677a6.449,6.449,0,0,0-11.221-.2L12.333,63.428V21.9a6.227,6.227,0,0,1,6.225-6.225H28.815a1.66,1.66,0,1,0,0-3.32H18.557A9.556,9.556,0,0,0,9.013,21.9V77.636A6.233,6.233,0,0,1,3.32,71.428V19.358A11.04,11.04,0,0,1,14.341,8.32H66.428a6.254,6.254,0,0,1,5.826,4.017H42.094a1.66,1.66,0,1,0,0,3.32H72.653l3.32.017A6.261,6.261,0,0,1,81.666,21.9Z" transform="translate(0 -5)"/></g></svg>