<svg xmlns="http://www.w3.org/2000/svg" xmlns:xlink="http://www.w3.org/1999/xlink" width="82.343" height="82.301" viewBox="0 0 82.343 82.301"><defs><style>.a{fill:url(#a);}</style><linearGradient id="a" x1="-1.568" x2="1" y2="-0.216" gradientUnits="objectBoundingBox"><stop offset="0" stop-color="#fd747f"/><stop offset="1" stop-color="#6b1d5f"/></linearGradient></defs><path class="a" d="M69.277,47.7a1.351,1.351,0,0,0-1.116-.976L57.283,45.191,52.4,35.707a1.441,1.441,0,0,0-2.51,0l-4.881,9.484L34.131,46.725a1.351,1.351,0,0,0-1.116.976,1.262,1.262,0,0,0,.418,1.395l7.81,7.392L39.43,66.809a1.326,1.326,0,0,0,.558,1.395,1.283,1.283,0,0,0,1.395.139l9.763-4.881,9.763,4.881a1.045,1.045,0,0,0,.7.139,1.982,1.982,0,0,0,.837-.279A1.326,1.326,0,0,0,63,66.809L61.188,56.488,69,49.1A1.524,1.524,0,0,0,69.277,47.7ZM58.538,54.954a1.406,1.406,0,0,0-.418,1.255l1.534,8.368-7.81-4.045a1.045,1.045,0,0,0-.7-.139,1.257,1.257,0,0,0-.7.139l-7.81,4.045,1.534-8.368a1.406,1.406,0,0,0-.418-1.255L37.478,49.1l8.647-1.255a1.422,1.422,0,0,0,1.116-.7l3.905-7.671,3.905,7.671a1.1,1.1,0,0,0,1.116.7L64.814,49.1Z" transform="translate(13.011 13.805)"/><path class="a" d="M47.447,36.342H60V21H7V61.447H34.894V48.894H47.447Zm0-12.552H57.21v9.763H47.447Zm-12.552,0h9.763v9.763H34.894Zm-12.552,0H32.1v9.763H22.342ZM32.1,46.1H22.342V36.342H32.1ZM9.789,23.789h9.763v9.763H9.789Zm0,12.552h9.763V46.1H9.789Zm9.763,22.315H9.789V48.894h9.763Zm12.552,0H22.342V48.894H32.1ZM44.657,46.1H34.894V36.342h9.763Z" transform="translate(2.763 8.289)"/><path class="a" d="M36.263,76.709H2.789V22.315H69.736v23.71a1.395,1.395,0,0,0,2.789,0V6.974A1.318,1.318,0,0,0,71.13,5.579H64.157V1.395A1.318,1.318,0,0,0,62.762,0H53A1.318,1.318,0,0,0,51.6,1.395V5.579H20.921V1.395A1.318,1.318,0,0,0,19.526,0H9.763A1.4,1.4,0,0,0,8.368,1.395V5.579H1.395A1.4,1.4,0,0,0,0,6.974V78.1A1.318,1.318,0,0,0,1.395,79.5H36.263a1.395,1.395,0,1,0,0-2.789ZM54.394,2.789h6.974v8.368H54.394V2.789Zm-43.236,0h6.974v8.368H11.158V2.789ZM2.789,8.368H8.368v4.184a1.318,1.318,0,0,0,1.395,1.395h9.763a1.318,1.318,0,0,0,1.395-1.395V8.368H51.6v4.184A1.318,1.318,0,0,0,53,13.947h9.763a1.318,1.318,0,0,0,1.395-1.395V8.368h5.579V19.526H2.789Z"/></svg>