<svg xmlns="http://www.w3.org/2000/svg" xmlns:xlink="http://www.w3.org/1999/xlink" width="72.787" height="74" viewBox="0 0 72.787 74"><defs><style>.a{fill:url(#a);}</style><linearGradient id="a" x1="4.78" y1="2.055" x2="-6.464" y2="2.129" gradientUnits="objectBoundingBox"><stop offset="0" stop-color="#6b1d5f"/><stop offset="1" stop-color="#fd747f"/></linearGradient></defs><circle class="a" cx="7.5" cy="7.5" r="7.5" transform="translate(29 12)"/><path class="a" d="M8.852,116.764v18.318h2.426v-18.2H22.2v16.984a1.217,1.217,0,0,0,1.213,1.213h7.279a1.217,1.217,0,0,0,1.213-1.213v-19.41H39.18v18.2H34.328v2.426H46.459v-2.426H41.607v-18.2h7.279v19.41a1.217,1.217,0,0,0,1.213,1.213h7.279a1.217,1.217,0,0,0,1.213-1.213V116.885H69.508v18.2h2.426V116.764a6.082,6.082,0,0,0,4.852-5.944v-18.2a6.066,6.066,0,0,0-5.1-5.975,8.484,8.484,0,1,0-10.448.955,6.1,6.1,0,0,0-2.654,5.019v8.492H53.738V95.049a8.508,8.508,0,0,0-7.491-8.431,8.492,8.492,0,1,0-11.707,0,8.5,8.5,0,0,0-7.491,8.431v6.066H22.2V92.623A6.1,6.1,0,0,0,19.543,87.6,8.5,8.5,0,1,0,9.1,86.648,6.066,6.066,0,0,0,4,92.623v18.2A6.082,6.082,0,0,0,8.852,116.764Zm40.169-4.731H31.765a5.964,5.964,0,0,0-1.077-2.426H50.1A5.964,5.964,0,0,0,49.022,112.033ZM59.8,80.492a6.066,6.066,0,1,1,6.066,6.066A6.064,6.064,0,0,1,59.8,80.492Zm0,23.049a1.217,1.217,0,0,0,1.213-1.213v-9.7a3.65,3.65,0,0,1,3.639-3.639h6.066a3.65,3.65,0,0,1,3.639,3.639v18.2a3.65,3.65,0,0,1-3.639,3.639H57.377a1.217,1.217,0,0,0-1.213,1.213v16.984H51.311v-19.41a3.65,3.65,0,0,1,3.639-3.639H65.869a1.217,1.217,0,0,0,1.213-1.213V96.262H64.656V107.18H47.672v-3.639ZM42.289,88.984l-1.9,5.034-1.9-5.034Zm-7.961-8.492a6.066,6.066,0,1,1,6.066,6.066A6.064,6.064,0,0,1,34.328,80.492ZM29.475,95.049a6.064,6.064,0,0,1,6.066-6.066h.379L39.271,97.9a1.214,1.214,0,0,0,2.275,0l3.336-8.916h.379a6.064,6.064,0,0,1,6.066,6.066v6.066H46.474a1.217,1.217,0,0,0-1.213,1.213v4.852h-9.7v-4.852a1.217,1.217,0,0,0-1.213-1.213H29.491V95.049ZM8.852,80.492a6.066,6.066,0,1,1,6.066,6.066A6.064,6.064,0,0,1,8.852,80.492ZM6.426,92.623a3.65,3.65,0,0,1,3.639-3.639h6.066a3.65,3.65,0,0,1,3.639,3.639v9.7a1.217,1.217,0,0,0,1.213,1.213H33.115v3.639H16.131V96.262H13.7v12.131a1.217,1.217,0,0,0,1.213,1.213H25.836a3.65,3.65,0,0,1,3.639,3.639v19.41H24.623V115.672a1.217,1.217,0,0,0-1.213-1.213H10.066a3.65,3.65,0,0,1-3.639-3.639Z" transform="translate(-4 -61.082)"/><rect class="a" width="3" height="2" transform="translate(35 40)"/><path class="a" d="M90.733,12.01a1.149,1.149,0,0,0,.546.121,1.169,1.169,0,0,0,.728-.243l4.534-3.4H102.2a1.217,1.217,0,0,0,1.213-1.213V1.213A1.217,1.217,0,0,0,102.2,0H85.213A1.217,1.217,0,0,0,84,1.213V7.279a1.217,1.217,0,0,0,1.213,1.213h4.852v2.426A1.236,1.236,0,0,0,90.733,12.01ZM86.426,6.066V2.426h14.557V6.066H96.131a1.27,1.27,0,0,0-.728.243L92.492,8.492V7.279a1.217,1.217,0,0,0-1.213-1.213Z" transform="translate(-71.869)"/><rect class="a" width="3" height="2" transform="translate(42 4)"/><rect class="a" width="3" height="2" transform="translate(47 4)"/><rect class="a" width="2" height="2" transform="translate(52 4)"/></svg>