<svg id="Capa_1" enable-background="new 0 0 512 512" height="512" viewBox="0 0 512 512" width="512" xmlns="http://www.w3.org/2000/svg"><path d="m488.522 86.247c0-5.523-4.477-10-10-10h-98.58v-66.247c0-5.523-4.477-10-10-10h-336.468c-5.523 0-10 4.477-10 10v286.001c0 4.135 2.667 7.961 6.552 9.387l102.037 37.477v84.757c0 .016.002.032.002.048v74.33c0 5.523 4.477 10 10 10h336.461c5.523 0 10-4.477 10-10v-74.374c0-.026-.004-.051-.004-.077zm-306.888 274.783c.853.23 1.734.345 2.617.345h185.692c5.523 0 10-4.477 10-10v-175.487h88.58v241.733h-316.46v-67.409l28.728 10.549c.277.103.559.192.843.269zm286.888-264.783v59.642h-88.58v-59.642zm-108.579-76.247v321.375h-171.417l-93.963-98.758c-2.58-2.711-6.459-3.756-10.051-2.705-3.592 1.05-6.298 4.019-7.011 7.693-.021.11-2.314 11.243-9.039 21.565-6.63 10.175-14.864 15.75-24.989 16.92v-189.841h237.354c5.523 0 10-4.477 10-10s-4.477-10-10-10h-237.353v-56.249zm-212.504 307.206-79.524-29.208c6.552-4.33 12.36-10.319 17.305-17.91 2.575-3.952 4.645-7.954 6.29-11.666zm321.087 164.794h-316.461v-54.374h316.461z"/><path d="m315.75 90.07c2.065 5.038 8.038 7.5 13.06 5.41 5.029-2.093 7.497-8.021 5.41-13.06-2.087-5.04-8.033-7.477-13.06-5.4s-7.506 8.019-5.41 13.05z"/></svg>