<?xml version="1.0" encoding="utf-8"?>
<!-- Generator: Adobe Illustrator 23.1.0, SVG Export Plug-In . SVG Version: 6.00 Build 0)  -->
<svg version="1.1" id="Layer_1" xmlns="http://www.w3.org/2000/svg" xmlns:xlink="http://www.w3.org/1999/xlink" x="0px" y="0px"
	 viewBox="0 0 512 512" style="enable-background:new 0 0 512 512;" xml:space="preserve">
<style type="text/css">
	.st0{fill:#6C1D5F;}
</style>
<g>
	<g>
		<path class="st0" d="M85.6,67.3c-26.8,0-48.5,21.8-48.5,48.5c0,26.8,21.8,48.5,48.5,48.5c26.8,0,48.5-21.8,48.5-48.5
			S112.4,67.3,85.6,67.3z M85.6,149.2c-18.5,0-33.5-15-33.5-33.5s15-33.5,33.5-33.5s33.5,15,33.5,33.5S104.1,149.2,85.6,149.2z"/>
	</g>
</g>
<g>
	<g>
		<path class="st0" d="M85.6,30.1c-4.2,0-7.5,3.4-7.5,7.5v15.1c0,4.2,3.4,7.5,7.5,7.5s7.5-3.4,7.5-7.5V37.7
			C93.2,33.5,89.8,30.1,85.6,30.1z"/>
	</g>
</g>
<g>
	<g>
		<path class="st0" d="M146.2,55.2c-2.9-2.9-7.7-2.9-10.6,0l-10.7,10.7c-2.9,2.9-2.9,7.7,0,10.6c1.5,1.5,3.4,2.2,5.3,2.2
			c1.9,0,3.9-0.7,5.3-2.2l10.7-10.7C149.1,62.9,149.1,58.2,146.2,55.2z"/>
	</g>
</g>
<g>
	<g>
		<path class="st0" d="M163.7,108.2h-15.1c-4.2,0-7.5,3.4-7.5,7.5s3.4,7.5,7.5,7.5h15.1c4.2,0,7.5-3.4,7.5-7.5
			C171.3,111.6,167.9,108.2,163.7,108.2z"/>
	</g>
</g>
<g>
	<g>
		<path class="st0" d="M146.2,165.7L135.5,155c-2.9-2.9-7.7-2.9-10.6,0s-2.9,7.7,0,10.6l10.7,10.7c1.5,1.5,3.4,2.2,5.3,2.2
			s3.9-0.7,5.3-2.2C149.1,173.4,149.1,168.6,146.2,165.7z"/>
	</g>
</g>
<g>
	<g>
		<path class="st0" d="M85.6,171.2c-4.2,0-7.5,3.4-7.5,7.5v15.1c0,4.2,3.4,7.5,7.5,7.5s7.5-3.4,7.5-7.5v-15.1
			C93.2,174.6,89.8,171.2,85.6,171.2z"/>
	</g>
</g>
<g>
	<g>
		<path class="st0" d="M46.4,155c-2.9-2.9-7.7-2.9-10.6,0l-10.7,10.7c-2.9,2.9-2.9,7.7,0,10.6c1.5,1.5,3.4,2.2,5.3,2.2
			c1.9,0,3.9-0.7,5.3-2.2l10.7-10.7C49.4,162.7,49.4,157.9,46.4,155z"/>
	</g>
</g>
<g>
	<g>
		<path class="st0" d="M22.7,108.2H7.5c-4.2,0-7.5,3.4-7.5,7.5s3.4,7.5,7.5,7.5h15.1c4.2,0,7.5-3.4,7.5-7.5
			C30.2,111.6,26.8,108.2,22.7,108.2z"/>
	</g>
</g>
<g>
	<g>
		<path class="st0" d="M46.4,65.9L35.7,55.2c-2.9-2.9-7.7-2.9-10.6,0s-2.9,7.7,0,10.6l10.7,10.7c1.5,1.5,3.4,2.2,5.3,2.2
			c1.9,0,3.9-0.7,5.3-2.2C49.4,73.6,49.4,68.9,46.4,65.9z"/>
	</g>
</g>
<g>
	<g>
		<path class="st0" d="M508.4,457.2c-13.1-8.9-28.3-12.9-43.3-12.1c-13.9-19.1-40-35.5-76-47.5c-22.4-7.5-47.3-12.9-73.8-16.1
			l53.9-135.3c8.1,5.9,15.2,12.9,21,20.7c1.9,2.6,4.9,4.1,8.1,3.3c17.8-3.2,36.7-1.2,54.6,6c18.1,7.2,33.3,18.8,44,33.6
			c1.4,2,3.7,3.1,6.1,3.1c0.6,0,1.2-0.1,1.8-0.2c3-0.7,5.2-3.2,5.6-6.2c0.3-2,6.8-49.4-8.7-101c-1.2-4-5.4-6.2-9.4-5
			c-4,1.2-6.2,5.4-5,9.4c9.1,30.1,10,59.3,9.5,77C486,276.4,473,268,458.4,262.2c-16.6-6.6-33.9-9.4-50.8-8.3
			c0.1-0.4,0.2-0.8,0.4-1.2c5.9-18,10.3-36.5,12.4-55.3c2-17.2,2.2-34.6,0-51.8c-1.3-10-3.4-19.8-6.5-29.4c0-0.1,0-0.1-0.1-0.2
			c27,14.6,47.8,36.2,61.8,64.3c1.9,3.7,6.4,5.2,10.1,3.4s5.2-6.4,3.4-10.1c-18.7-37.2-48-64-87.1-79.6
			c-53.8-21.5-109.9-14.4-162,20.4c-38.9,26-61.7,57.8-62.7,59.2c-1.8,2.5-1.8,5.8-0.2,8.4s4.7,3.9,7.7,3.3c17.9-3.3,37-1.3,55,5.9
			c17.8,7.1,32.8,18.5,43.5,32.9c2.1,2.8,5.1,4.5,8.7,3.5c9.6-1.7,19.4-1.9,29.3-0.5L261.3,378c-1.5,0-3,0-4.6,0
			c-34.7,0-67.8,3.5-98.5,10.3c-4.1,0.9-6.6,4.9-5.7,9c0.9,4.1,4.9,6.6,9,5.7c29.2-6.5,62.1-9.9,95.3-9.9c15.7,0,31.4,0.7,47,2.3
			c0.1,0,0.1,0,0.2,0c29,2.9,56.3,8.4,80.3,16.5c28.7,9.6,50.8,22.3,63.8,36.3c-6.6,2-12.9,5.1-18.8,9.1
			c-18.9,12.8-43.3,12.8-62.2,0c-24-16.3-55.1-16.3-79.1,0c-18.9,12.8-43.3,12.8-62.2,0c-24-16.3-55.1-16.3-79.1,0
			c-18.9,12.8-43.3,12.8-62.2,0c-5.9-4-12.3-7-18.8-9.1c13-14,35.1-26.7,63.7-36.3c3.9-1.3,6.1-5.6,4.7-9.5
			c-1.3-3.9-5.6-6.1-9.5-4.7c-36,12.1-62.1,28.4-75.9,47.5c-15-0.8-30.2,3.2-43.3,12.1c-3.4,2.3-4.3,7-2,10.5c2.3,3.4,7,4.3,10.5,2
			c11.2-7.6,24.3-10.7,37-9.3c0.5,0.1,0.9,0.2,1.4,0.2c8.3,1.1,16.5,4.2,23.8,9.1c24,16.3,55.1,16.3,79.1,0
			c18.9-12.8,43.3-12.8,62.2,0c24,16.3,55.1,16.3,79.1,0c18.9-12.8,43.3-12.8,62.2,0c12,8.2,25.8,12.2,39.6,12.2
			c13.8,0,27.5-4.1,39.6-12.2c7.3-5,15.5-8,23.8-9.1c0.5,0,1-0.1,1.5-0.2c12.7-1.4,25.8,1.7,37,9.3c3.4,2.3,8.1,1.4,10.5-2
			C512.7,464.2,511.8,459.5,508.4,457.2z M302.3,211.4c0.1-0.2,0.2-0.3,0.2-0.5c7-14.7,15.2-28.9,24.7-42c2.3-3.2,1.7-8.1-1.7-10.5
			c-3.3-2.4-8.1-1.6-10.5,1.7c-7.7,10.6-14.5,21.8-20.6,33.3c-2.2,4.2-4.4,8.4-6.3,12.7c0,0.1-0.1,0.1-0.1,0.2
			c-11.5-12.4-26-22.3-42.6-29c-14.6-5.8-29.8-8.7-44.7-8.5c10-11.3,26.6-27.8,48-42.1c21.3-14.2,43.3-23.4,65.3-27.5
			c21.3-3.9,42.9-3,64.2,2.7c-0.1,0-0.2,0.1-0.3,0.1c-11.6,6.3-22.3,14.2-32,23.1c-3.8,3.5-7.5,7-11,10.8c-2.9,3-2.8,7.8,0.3,10.6
			s7.8,2.8,10.6-0.3c9.6-10.1,20.5-19.4,32.4-26.9c5.5-3.4,11.2-6.6,17.2-9.1c1.6,3.6,3.6,8.8,5.5,15.7c9.1,32.7,6.6,68-1.3,100.6
			c-1.7,7-3.7,14-5.9,20.8c0,0.1,0,0.1-0.1,0.2c-10.2-10.8-22.8-19.7-37.1-26c-0.2-0.1-0.4-0.2-0.6-0.3
			C339.3,214.1,320.7,210.4,302.3,211.4z M299.6,379.8c-3.5-0.3-7-0.6-10.5-0.8c-3.9-0.3-7.8-0.5-11.7-0.6l59-148.1
			c3.6,1,7.1,2.2,10.5,3.6c0.6,0.2,9.2,4.2,9.2,4.2L299.6,379.8z"/>
	</g>
</g>
</svg>
