<svg xmlns="http://www.w3.org/2000/svg" xmlns:xlink="http://www.w3.org/1999/xlink" width="76.193" height="74" viewBox="0 0 76.193 74"><defs><style>.a{fill:url(#a);}.b{fill:#6c1d5f;opacity:0.85;}.c{fill:#401c0f;}</style><linearGradient id="a" x1="-1.803" y1="0.5" x2="2.763" y2="0.5" gradientUnits="objectBoundingBox"><stop offset="0" stop-color="#fd747f"/><stop offset="1" stop-color="#6b1d5f"/></linearGradient></defs><path class="a" d="M74.382,228.841a6.913,6.913,0,0,0-4.249-1.789,6.065,6.065,0,0,0-4.682,1.789l-8.469,8.38a6.173,6.173,0,0,0-.567-.82,5.5,5.5,0,0,0-4.294-1.923H40.252a23.973,23.973,0,0,1-6.486-.865,15.956,15.956,0,0,0-14.881,3.146,21.591,21.591,0,0,0-3.877,4.16l-2.132-2.058a1.532,1.532,0,0,0-1.044-.432h-.015a1.479,1.479,0,0,0-1.074.462L.412,249.626A1.437,1.437,0,0,0-.006,250.7a1.569,1.569,0,0,0,.462,1.059l17.49,16.655a1.443,1.443,0,0,0,1.029.417,1.513,1.513,0,0,0,1.074-.447l10.243-10.512a1.536,1.536,0,0,0,.432-1.074,1.57,1.57,0,0,0-.462-1.059l-.895-.865,2.043-.224a31.258,31.258,0,0,1,3.728-.224H53.179a13.462,13.462,0,0,0,7.4-1.909c.015-.015.03-.015.045-.03a9.588,9.588,0,0,0,1.909-1.73l12.167-14.3A5.234,5.234,0,0,0,74.382,228.841ZM18.93,265.223l-15.313-14.6,8.245-8.573,15.223,14.776Zm53.5-30.715-12.167,14.3A7.09,7.09,0,0,1,58.95,250a10.706,10.706,0,0,1-5.77,1.416H35.138a33.7,33.7,0,0,0-4.071.239l-4.488.507-9.394-9.11a18.533,18.533,0,0,1,3.593-3.951,12.883,12.883,0,0,1,12.182-2.579,27.369,27.369,0,0,0,7.276.969H52.091a2.709,2.709,0,0,1,2.7,2.937,3.222,3.222,0,0,1-.7,2.073,2.559,2.559,0,0,1-2.043.865h-10.3a1.506,1.506,0,1,0,0,3.012H52.061a5.573,5.573,0,0,0,4.324-1.909A6.126,6.126,0,0,0,57.8,240.65l9.751-9.662a3.5,3.5,0,0,1,4.786.075C72.98,231.629,73.83,232.852,72.429,234.507Z" transform="translate(0.007 -194.831)"/><path class="b" d="M231.686,337.182a1.5,1.5,0,1,0-2.922.686l.015.06a1.511,1.511,0,0,0,1.461,1.163,1.354,1.354,0,0,0,.343-.045,1.5,1.5,0,0,0,1.118-1.8Z" transform="translate(-194.618 -287.561)"/><path class="c" d="M46.883,42.625h14.6a3.549,3.549,0,0,0,2.132-.7,3.65,3.65,0,0,0,2.132.7H80.356a3.549,3.549,0,0,0,2.132-.7,3.65,3.65,0,0,0,2.132.7h14.6A3.627,3.627,0,0,0,102.841,39V32.188a7.857,7.857,0,0,0-4.279-7.023,8.648,8.648,0,1,0-13.33,0,7.792,7.792,0,0,0-2.773,2.386,7.792,7.792,0,0,0-2.773-2.386,8.648,8.648,0,1,0-13.33,0,7.792,7.792,0,0,0-2.773,2.386,7.792,7.792,0,0,0-2.773-2.386,8.648,8.648,0,1,0-13.33,0A7.857,7.857,0,0,0,43.2,32.188V39A3.718,3.718,0,0,0,46.883,42.625ZM91.927,14a5.651,5.651,0,1,1-5.651,5.651A5.657,5.657,0,0,1,91.927,14ZM88.02,27.357a8.556,8.556,0,0,0,3.892.924,8.7,8.7,0,0,0,3.892-.924,4.871,4.871,0,0,1,4.041,4.816v6.814a.63.63,0,0,1-.626.626h-14.6a.63.63,0,0,1-.626-.626V32.173A4.858,4.858,0,0,1,88.02,27.357ZM73.05,14A5.651,5.651,0,1,1,67.4,19.648,5.657,5.657,0,0,1,73.05,14Zm-3.892,13.36a8.556,8.556,0,0,0,3.892.924,8.7,8.7,0,0,0,3.892-.924,4.871,4.871,0,0,1,4.041,4.816v6.814a.63.63,0,0,1-.626.626h-14.6a.63.63,0,0,1-.626-.626V32.173A4.845,4.845,0,0,1,69.159,27.357ZM54.189,14a5.651,5.651,0,1,1-5.651,5.651A5.657,5.657,0,0,1,54.189,14ZM46.257,32.188A4.86,4.86,0,0,1,50.3,27.372a8.556,8.556,0,0,0,3.892.924,8.7,8.7,0,0,0,3.892-.924,4.871,4.871,0,0,1,4.041,4.816V39a.63.63,0,0,1-.626.626H46.883A.63.63,0,0,1,46.257,39Z" transform="translate(-36.758 -11)"/></svg>