<?xml version="1.0" encoding="utf-8"?>
<!-- Generator: Adobe Illustrator 23.1.1, SVG Export Plug-In . SVG Version: 6.00 Build 0)  -->
<svg version="1.1" id="Capa_1" xmlns="http://www.w3.org/2000/svg" xmlns:xlink="http://www.w3.org/1999/xlink" x="0px" y="0px"
	 viewBox="0 0 60 60" style="enable-background:new 0 0 60 60;" xml:space="preserve">
<style type="text/css">
	.st0{fill:#6C1D5F;}
</style>
<g>
	<path class="st0" d="M30,0C13.5,0,0,13.5,0,30s13.5,30,30,30s30-13.5,30-30S46.5,0,30,0z M30,58C14.6,58,2,45.4,2,30S14.6,2,30,2
		s28,12.6,28,28S45.4,58,30,58z"/>
	<path class="st0" d="M15.3,18.2l2,3.4c0.1,0.1,0.2,0.2,0.3,0.2l1.8,0.5l6.3,6.3l0.7-0.7L20,21.5c-0.1-0.1-0.1-0.1-0.2-0.1L18,21
		L16.3,18l1.4-1.4l2.9,1.7l0.4,1.8c0,0.1,0.1,0.2,0.1,0.2l6.4,6.4l0.7-0.7l-6.3-6.3l-0.5-1.8c0-0.1-0.1-0.2-0.2-0.3l-3.4-2
		c-0.2-0.1-0.4-0.1-0.6,0.1l-2,2C15.2,17.7,15.2,18,15.3,18.2z"/>
	<path class="st0" d="M35.8,25.2L24.9,36l-0.7-0.7l10.8-10.8L35.8,25.2z"/>
	<path class="st0" d="M23,36.4c-0.1-0.1-0.2-0.2-0.4-0.2h-3c-0.2,0-0.3,0.1-0.4,0.2l-1.5,2.5c-0.1,0.2-0.1,0.4,0,0.5l1.5,2.5
		c0.1,0.1,0.2,0.2,0.4,0.2h3c0.2,0,0.3-0.1,0.4-0.2l1.5-2.5c0.1-0.2,0.1-0.4,0-0.5L23,36.4z M22.3,41.1h-2.4l-1.2-2l1.2-2h2.4l1.2,2
		L22.3,41.1z"/>
	<path class="st0" d="M38.9,27.3c3.3,0,5.9-2.6,5.9-5.9c0-0.5-0.1-1-0.2-1.5c-0.1-0.3-0.3-0.4-0.6-0.4c-0.1,0-0.2,0.1-0.2,0.1
		l-3.1,3.1L38.3,22l-0.8-2.4l3.1-3.1c0.2-0.2,0.2-0.5,0-0.7c-0.1-0.1-0.1-0.1-0.2-0.1c-3.2-0.8-6.4,1.1-7.2,4.3
		c-0.1,0.5-0.2,1-0.2,1.5c0,0.4,0,0.8,0.1,1.2L22.3,33.3c-0.4-0.1-0.8-0.1-1.2-0.1c-3.3,0-5.9,2.6-5.9,5.9c0,3.3,2.6,5.9,5.9,5.9
		c3.3,0,5.9-2.6,5.9-5.9c0-0.4,0-0.8-0.1-1.2l2.6-2.6l1.1,1.1c0.2,0.2,0.5,0.2,0.7,0l0.2-0.2c0.2-0.2,0.6-0.2,0.8,0
		c0.2,0.2,0.2,0.6,0,0.8c0,0,0,0,0,0l-0.2,0.2c-0.2,0.2-0.2,0.5,0,0.7l5.9,5.9c1.5,1.6,4.1,1.6,5.6,0c1.6-1.5,1.6-4.1,0-5.6
		c0,0,0,0,0,0l-5.9-5.9c-0.2-0.2-0.5-0.2-0.7,0l-0.2,0.2c-0.2,0.2-0.6,0.2-0.8,0c-0.2-0.2-0.2-0.6,0-0.8c0,0,0,0,0,0l0.2-0.2
		c0.2-0.2,0.2-0.5,0-0.7l-1.1-1.1l2.6-2.6C38.1,27.2,38.5,27.3,38.9,27.3z M40.8,44c-0.4,0-0.7-0.1-1-0.2l3.8-3.8
		c0.6,1.5-0.2,3.3-1.7,3.8C41.5,44,41.1,44,40.8,44z M35.2,31.2c-0.5,0.7-0.5,1.6,0.2,2.2c0.6,0.5,1.4,0.5,2,0l5.5,5.5
		C43,39,43,39,43.1,39.1l-4.2,4.2c-0.1-0.1-0.1-0.1-0.2-0.2l-5.5-5.5c0.5-0.7,0.5-1.6-0.2-2.2c-0.6-0.5-1.4-0.5-2,0l-0.8-0.8
		l4.2-4.2L35.2,31.2z M37.2,26.3L26,37.4c-0.1,0.1-0.2,0.3-0.1,0.5c0.7,2.7-0.9,5.3-3.6,6c-2.7,0.7-5.3-0.9-6-3.6
		c-0.7-2.7,0.9-5.3,3.6-6c0.8-0.2,1.6-0.2,2.4,0c0.2,0,0.3,0,0.5-0.1L34,23c0.1-0.1,0.2-0.3,0.1-0.5c-0.7-2.6,0.9-5.3,3.5-6
		c0.5-0.1,1-0.2,1.5-0.1l-2.6,2.6c-0.1,0.1-0.2,0.3-0.1,0.5l1,3c0,0.1,0.2,0.3,0.3,0.3l3,1c0.2,0.1,0.4,0,0.5-0.1l2.6-2.6
		c0,0.1,0,0.2,0,0.3c0,2.7-2.2,4.9-4.9,4.9c-0.4,0-0.8,0-1.2-0.2C37.5,26.1,37.3,26.2,37.2,26.3L37.2,26.3L37.2,26.3z"/>
	<path class="st0" d="M40.7,40.2L40,40.9L35.1,36l0.7-0.7L40.7,40.2z"/>
</g>
</svg>
