<?xml version="1.0" encoding="utf-8"?>
<!-- Generator: Adobe Illustrator 23.1.0, SVG Export Plug-In . SVG Version: 6.00 Build 0)  -->
<svg version="1.1" id="Layer_1" xmlns="http://www.w3.org/2000/svg" xmlns:xlink="http://www.w3.org/1999/xlink" x="0px" y="0px"
	 viewBox="0 0 1920 1080" style="enable-background:new 0 0 1920 1080;" xml:space="preserve">
<g>
	<g>
		<path d="M615.1,515.36c-104.93,0.26-190.59-85.56-190.33-190.82c0.26-104.59,85.7-190.14,191.02-189.84
			c104.59,0.3,190.24,85.78,189.79,191.24C805.13,430.29,719.96,515.67,615.1,515.36z M790.5,324.99
			c0.12-96.68-78.58-175.23-175.3-175.25c-96.7-0.02-175.32,78.52-175.38,175.2c-0.06,96.74,78.54,175.41,175.33,175.42
			C711.93,500.38,790.69,421.75,790.5,324.99z"/>
		<path d="M655.36,366.58c-2.69-5.57-3.51-11.5-4.52-17.37c-1.55-8.99-2.09-18.08-2.51-27.18c-0.02-0.44,0.16-0.95-0.38-1.39
			c-0.81,0.91-1.07,2.07-1.54,3.11c-1.78,4.01-3.56,8.01-5.93,11.71c-0.6,0.94-1.28,1.86-2.07,2.65c-1.7,1.68-3.35,1.18-3.87-1.13
			c-0.3-1.33-0.44-2.69-0.33-4.06c0.65-8.21,1.88-16.35,3.89-24.33c1.32-5.24,3.66-10.01,8.15-13.39c2.64-1.99,5.62-3.02,8.92-3.04
			c4.86-0.03,9.74-0.34,14.56,0.1c3.81,0.34,7.5,0.42,11.32-0.01c4.04-0.45,8.16-0.08,12.25-0.11c2.05-0.01,4.02,0.36,5.84,1.27
			c0.93,0.47,1.73,0.51,2.67,0.01c1.81-0.95,3.78-1.3,5.84-1.28c3.79,0.03,7.58,0.07,11.37,0c5.9-0.11,10,2.69,12.82,7.68
			c2.19,3.87,3.18,8.15,4.29,12.38c1.69,6.47,3.33,12.95,4.2,19.6c0.22,1.71,0.26,3.43,0.1,5.14c-0.09,0.9-0.46,1.75-1.44,2.07
			c-0.92,0.3-1.6-0.21-2.21-0.8c-2.41-2.3-3.77-5.28-5.25-8.18c-0.99-1.94-1.88-3.93-3.09-5.83c0.76,4.63,1.51,9.26,2.27,13.88
			c0.4,2.39,0.78,4.79,1.23,7.17c0.26,1.41-0.09,2.13-1.69,2.05c-1.83-0.09-3.67,0.06-5.5-0.04c-1.41-0.08-1.99,0.49-2.24,1.84
			c-0.86,4.54-1.86,9.04-3.17,13.47c-0.17,0.57-0.35,1.13-0.55,1.69c-0.93,2.52-0.93,2.52,1.88,2.52c8.23,0,16.46-0.06,24.69,0.02
			c6.32,0.06,10.37,6.09,7.95,11.77c-1.47,3.46-4.31,5.05-7.98,5.27c-0.71,0.04-1.42,0.02-2.13,0.02c-34.94,0-69.88,0-104.81,0
			c-2.88,0-2.86,0-1.86,2.71c8.7,23.41,17.4,46.83,26.09,70.24c0.25,0.67,0.51,1.34,0.65,2.03c0.38,1.82-0.71,3.33-2.54,3.57
			c-0.58,0.08-1.18,0.05-1.77,0.05c-24.63,0-49.27,0-73.9,0c-3.89,0-5.04-1.59-3.68-5.27c7.14-19.32,14.32-38.63,21.48-57.94
			c1.65-4.44,3.31-8.87,4.95-13.31c0.74-2,0.69-2.07-1.45-2.07c-20.19,0-40.39,0-60.58,0c-15.63,0-31.27,0-46.9,0
			c-2.62,0-5.06-0.5-7.03-2.4c-2.59-2.5-3.42-5.87-2.2-9.1c1.26-3.35,4.22-5.51,7.92-5.56c4.91-0.07,9.83-0.03,14.74-0.03
			c10.6,0,21.2,0,31.83-0.17c-1.82-0.39-3.66-0.72-5.46-1.17c-13.13-3.27-23.94-10.29-32.83-20.37
			c-11.6-13.16-18.62-28.72-23.39-45.39c-3.32-11.59-5.12-23.43-5.79-35.48c-0.37-6.69-0.37-13.36,0.07-20.04
			c0.14-2.11,0.66-2.48,2.52-1.54c19.34,9.81,37.75,21.04,54.13,35.35c8.44,7.37,16.21,15.41,22.6,24.7
			c0.94,1.37,0.97,2.34,0.01,3.77c-4.94,7.34-7.25,15.6-8.1,24.33c-0.11,1.09,0.21,2.54-0.89,3.07c-1.13,0.54-2.04-0.66-2.89-1.33
			c-5.48-4.34-9.72-9.82-13.96-15.3c-5.51-7.12-9.95-15-15.47-22.12c-2.76-3.56-5.7-6.96-8.79-10.23c-0.19-0.2-0.33-0.5-0.72-0.43
			c-0.19,0.55,0.25,0.87,0.5,1.22c7.01,9.91,13.59,20.1,19.94,30.45c3.47,5.66,7.26,11.1,12.19,15.65c2.46,2.27,5.02,4.36,8.53,4.73
			c1.03,0.11,1.1,0.88,1.21,1.67c0.38,2.87,0.82,5.74,1.16,8.61c0.7,5.97,3.96,10.66,7.4,15.31c0.99,1.34,2.9,2.21,2.58,4.37
			c-0.04,0.29,0.33,0.29,0.55,0.3c0.41,0.02,0.83,0.02,1.24,0.02c17.35,0,34.7-0.02,52.05,0.04c1.77,0.01,2.65-0.51,3.19-2.23
			c0.92-2.93,2.11-5.78,3.18-8.67c0.56-1.5,1.46-2.62,3.2-2.61c1.67,0,2.51,1.11,3.04,2.55c1.16,3.17,2.36,6.32,3.51,9.49
			c0.34,0.94,0.86,1.45,1.93,1.44c8.11-0.03,16.22-0.03,24.34-0.04C655.03,366.72,655.14,366.66,655.36,366.58z M709.12,366.66
			c-2.15-4.79-3.11-9.67-4.27-14.49c-1.4-5.82,0-4.7-6.2-4.89c-1.57-0.05-2.13,0.56-2.45,2.04c-1.25,5.82-2.2,11.72-4.67,17.34
			C697.39,366.66,703.16,366.66,709.12,366.66z M669.49,366.75c4.24,0,8.31-0.01,12.39,0.01c0.91,0,1-0.33,0.59-1.07
			c-0.72-1.3-1.08-2.74-1.5-4.16c-1.22-4.14-2.14-8.37-3.05-12.59c-0.26-1.19-0.81-1.68-2.04-1.69c-1.57-0.01-1.61,1.09-1.8,2.13
			C673.01,355.18,672.28,361.07,669.49,366.75z M626.39,374.5c-0.02-2.46-1.95-4.43-4.32-4.43c-2.5,0-4.5,2-4.5,4.5
			c-0.01,2.44,2.04,4.36,4.6,4.33C624.77,378.85,626.41,377.15,626.39,374.5z"/>
		<path d="M663.77,289.42c-8.33,0-14.49-4.85-16.05-11.62c-1.61-7,1.75-14,8.25-17.16c6.32-3.07,13.86-1.4,18.24,4.16
			c0.88,1.12,1.23,1.06,2.14,0c6.79-7.88,17.65-7.56,24.02,0.7c0.89,1.15,1.17,0.54,1.75-0.17c5.34-6.56,13.43-8.08,20.28-3.83
			c5,3.1,7.93,9.25,6.94,14.91c-1.14,6.5-4.86,10.9-11.31,12.53c-6.19,1.56-11.45-0.32-15.55-5.24c-1.32-1.58-1.27-1.62-2.49-0.03
			c-5.79,7.52-17.27,7.76-23.39,0.43c-1.01-1.21-1.5-1.34-2.61,0C671.04,287.66,667.08,289.32,663.77,289.42z"/>
		<path d="M571.82,319.23c-1.69,6.01-2.9,11.79-3.67,17.65c-1.11,8.44-1.84,16.92-2.5,25.4c-0.05,0.59-0.02,1.28-0.72,1.48
			c-0.84,0.24-1.29-0.48-1.74-0.99c-5.49-6.11-8.9-13.22-10.07-21.35c-1.47-10.16,0.55-19.8,4.86-28.98
			c5.41-11.53,13.22-21.25,22.8-29.59c1.42-1.24,1.94-1.08,2.65,0.74c5.43,14.01,7.57,28.57,6.66,43.52
			c-0.77,12.59-5.57,23.49-14.76,32.31c-1.54,1.48-3.18,2.84-5,3.96c-1.3,0.8-1.89,0.49-1.91-1.01c-0.12-6.8,0.21-13.6,0.53-20.39
			c0.35-7.41,1.81-14.66,2.97-21.95C571.94,319.88,571.88,319.72,571.82,319.23z"/>
	</g>
</g>
</svg>
