<svg xmlns="http://www.w3.org/2000/svg" xmlns:xlink="http://www.w3.org/1999/xlink" width="75.088" height="75.059" viewBox="0 0 75.088 75.059"><defs><style>.a{fill:url(#a);}</style><linearGradient id="a" x1="-0.141" y1="0.5" x2="1.149" y2="0.5" gradientUnits="objectBoundingBox"><stop offset="0" stop-color="#fd747f"/><stop offset="1" stop-color="#6b1d5f"/></linearGradient></defs><path class="a" d="M462.3,209.758a37.529,37.529,0,1,1,37.559-37.35A37.551,37.551,0,0,1,462.3,209.758Zm34.585-37.537A34.573,34.573,0,1,0,462.309,206.8,34.574,34.574,0,0,0,496.884,172.221Z" transform="translate(-424.769 -134.699)"/><path class="a" d="M511.688,266.671a12.5,12.5,0,0,1-.891-3.425,43.169,43.169,0,0,1-.495-5.359c0-.087.032-.187-.075-.274a2.2,2.2,0,0,0-.3.613,17.016,17.016,0,0,1-1.169,2.309,3.077,3.077,0,0,1-.408.523c-.335.331-.661.233-.763-.223a2.664,2.664,0,0,1-.065-.8,28.978,28.978,0,0,1,.767-4.8,4.531,4.531,0,0,1,1.607-2.64,2.886,2.886,0,0,1,1.759-.6c.958-.006,1.921-.067,2.871.02a10.967,10.967,0,0,0,2.232,0,23.464,23.464,0,0,1,2.415-.022,2.512,2.512,0,0,1,1.152.25.519.519,0,0,0,.526,0,2.384,2.384,0,0,1,1.151-.252c.747.006,1.495.014,2.242,0a2.684,2.684,0,0,1,2.528,1.514,9.954,9.954,0,0,1,.846,2.441,31.477,31.477,0,0,1,.828,3.865,4.585,4.585,0,0,1,.02,1.013.433.433,0,0,1-.284.408.42.42,0,0,1-.436-.158,5.654,5.654,0,0,1-1.035-1.613c-.2-.383-.371-.775-.609-1.15q.225,1.369.448,2.737c.079.471.154.944.242,1.414.051.278-.018.42-.333.4-.361-.018-.724.012-1.084-.008-.278-.016-.392.1-.442.363a27.182,27.182,0,0,1-.625,2.656c-.034.112-.069.223-.109.333-.183.5-.183.5.371.5,1.623,0,3.246-.012,4.868,0A1.66,1.66,0,0,1,531,269.035a1.68,1.68,0,0,1-1.573,1.039c-.14.008-.28,0-.42,0H508.342c-.568,0-.564,0-.367.534q2.573,6.924,5.144,13.85a2.7,2.7,0,0,1,.128.4.565.565,0,0,1-.5.7,2.575,2.575,0,0,1-.349.01H497.826c-.767,0-.994-.314-.726-1.039q2.112-5.714,4.235-11.425.488-1.313.976-2.624c.146-.394.136-.408-.286-.408H480.833a1.88,1.88,0,0,1-1.386-.473,1.63,1.63,0,0,1-.434-1.794,1.652,1.652,0,0,1,1.562-1.1c.968-.014,1.938-.006,2.906-.006,2.09,0,4.18,0,6.276-.034-.359-.077-.722-.142-1.077-.231a12.527,12.527,0,0,1-6.473-4.017,22.6,22.6,0,0,1-4.612-8.95,31.681,31.681,0,0,1-1.142-7,32.626,32.626,0,0,1,.014-3.951c.028-.416.13-.489.5-.3a51.2,51.2,0,0,1,10.673,6.97,26.333,26.333,0,0,1,4.456,4.87.562.562,0,0,1,0,.743,10.165,10.165,0,0,0-1.6,4.8c-.022.215.041.5-.175.605s-.4-.13-.57-.262A16.8,16.8,0,0,1,487,256.936c-1.086-1.4-1.962-2.958-3.05-4.362q-.816-1.053-1.733-2.017c-.038-.039-.065-.1-.142-.085-.037.108.049.172.1.241,1.382,1.954,2.68,3.963,3.932,6a14.17,14.17,0,0,0,2.4,3.086,2.961,2.961,0,0,0,1.682.933c.2.022.217.173.239.329.075.566.162,1.132.229,1.7a6.361,6.361,0,0,0,1.459,3.019c.2.264.572.436.509.862-.008.057.065.057.108.059.081,0,.164,0,.245,0,3.421,0,6.842,0,10.263.008a.548.548,0,0,0,.629-.44c.181-.578.416-1.14.627-1.71a.656.656,0,0,1,.631-.515c.329,0,.495.219.6.5.229.625.465,1.246.692,1.871a.362.362,0,0,0,.381.284q2.4-.009,4.8-.008A.441.441,0,0,0,511.688,266.671Zm10.6.016a15.684,15.684,0,0,1-.842-2.857c-.276-1.148,0-.927-1.223-.964-.31-.01-.42.11-.483.4a17.275,17.275,0,0,1-.921,3.419Zm-7.814.018c.836,0,1.639,0,2.443,0,.179,0,.2-.065.116-.211a3.993,3.993,0,0,1-.3-.82c-.241-.816-.422-1.65-.6-2.482a.358.358,0,0,0-.4-.333c-.31,0-.318.215-.355.42A12.591,12.591,0,0,1,514.474,266.7Zm-8.5,1.528a.866.866,0,0,0-.852-.874.884.884,0,0,0-.887.887.868.868,0,0,0,.907.854A.8.8,0,0,0,505.975,268.232Z" transform="translate(-466.22 -220.949)"/><path class="a" d="M650.564,265.072a3.072,3.072,0,0,1-3.165-2.291,2.987,2.987,0,0,1,1.627-3.384,2.928,2.928,0,0,1,3.6.82c.174.221.242.209.422,0a2.948,2.948,0,0,1,4.736.138c.175.227.231.106.345-.034a2.99,2.99,0,0,1,5.367,2.185,2.991,2.991,0,0,1-5.3,1.437c-.26-.312-.25-.319-.491-.006a2.971,2.971,0,0,1-4.612.085c-.2-.239-.3-.264-.515,0A2.8,2.8,0,0,1,650.564,265.072Z" transform="translate(-603.438 -234.564)"/><path class="a" d="M556.425,289.379a24.575,24.575,0,0,0-.724,3.48c-.219,1.664-.363,3.336-.493,5.008-.01.116,0,.252-.142.292-.166.047-.254-.095-.343-.2a7.856,7.856,0,0,1-1.986-4.21,9.9,9.9,0,0,1,.958-5.714,17.664,17.664,0,0,1,4.5-5.835c.28-.245.383-.213.523.146a20.116,20.116,0,0,1,1.313,8.581,9.331,9.331,0,0,1-2.91,6.371,5.878,5.878,0,0,1-.986.781c-.256.158-.373.1-.377-.2-.024-1.341.041-2.682.1-4.02a39.412,39.412,0,0,1,.586-4.328A1.016,1.016,0,0,0,556.425,289.379Z" transform="translate(-527.43 -252.994)"/></svg>