<svg xmlns="http://www.w3.org/2000/svg" xmlns:xlink="http://www.w3.org/1999/xlink" width="76.96" height="76.972" viewBox="0 0 76.96 76.972"><defs><style>.a{fill:url(#a);}</style><linearGradient id="a" x1="-0.319" y1="0.398" x2="1.266" y2="0.398" gradientUnits="objectBoundingBox"><stop offset="0" stop-color="#fd747f"/><stop offset="1" stop-color="#6b1d5f"/></linearGradient></defs><path class="a" d="M59.671,41.016,51.352,30.421a17.852,17.852,0,0,0,5.033-11.236H69.271V20.6a6.411,6.411,0,1,0,2.564,0V17.9a1.286,1.286,0,0,0-1.282-1.282H56.385a17.811,17.811,0,0,0-3.751-9.745l1.779-1.8h15.1a3.843,3.843,0,1,0,0-2.564H53.885a1.3,1.3,0,0,0-.914.369L50.9,4.953A17.914,17.914,0,0,0,20.611,16.621H9.84L5.64,7.2a3.836,3.836,0,1,0-5.177-1.6A3.876,3.876,0,0,0,2.98,7.549l4.84,10.9a1.283,1.283,0,0,0,1.17.753h11.6a17.839,17.839,0,0,0,4.953,11.123L14.728,41.144a12.812,12.812,0,1,0-3.8,25.34c.208.032.417.064.641.08v6.475a1.286,1.286,0,0,0,1.282,1.282H24.634a3.843,3.843,0,1,0,0-2.564h-10.5V66.564A12.821,12.821,0,0,0,17.6,41.9l9.873-9.873a17.855,17.855,0,0,0,21.958.1l7.116,9.056a17.952,17.952,0,1,0,3.125-.16ZM74.4,26.879a3.847,3.847,0,1,1-3.847-3.847A3.837,3.837,0,0,1,74.4,26.879ZM73.118,2.516A1.282,1.282,0,1,1,71.836,3.8,1.286,1.286,0,0,1,73.118,2.516ZM3.877,5.081A1.282,1.282,0,1,1,5.16,3.8,1.286,1.286,0,0,1,3.877,5.081ZM28.24,71.757a1.282,1.282,0,1,1-1.282,1.282A1.286,1.286,0,0,1,28.24,71.757ZM17.982,62.685a10.206,10.206,0,0,1-10.258,0V60.217a5.129,5.129,0,1,1,10.258,0ZM10.288,49.959a2.564,2.564,0,1,1,2.564,2.564A2.572,2.572,0,0,1,10.288,49.959Zm10.258-2.965a10.265,10.265,0,0,1,0,13.576v-.353a7.658,7.658,0,0,0-3.991-6.732,5.124,5.124,0,1,0-7.421.016A7.675,7.675,0,0,0,5.16,60.233v.353A10.265,10.265,0,0,1,20.546,46.994ZM47.473,30.373a15.3,15.3,0,0,1-17.951,0V27.264a4.227,4.227,0,0,1,4.231-4.231h2.853L34.747,27.68a1.257,1.257,0,0,0,.289,1.378L37.6,31.623a1.287,1.287,0,0,0,1.811,0l2.564-2.564a1.269,1.269,0,0,0,.289-1.378l-1.859-4.648h2.853a4.227,4.227,0,0,1,4.231,4.231l-.016,3.109Zm-8.8-20.82a1.24,1.24,0,0,0-.112.256c-.641,1.939-4.151,2.677-6.411,2.9.337-4.3,2.372-6.331,6.347-6.331,3.638,0,5.642,1.715,6.219,5.305L40.437,9.12A1.28,1.28,0,0,0,38.674,9.553ZM40.261,12l4.584,2.757c-.513,3.141-4.376,5.722-6.347,5.722a8.078,8.078,0,0,1-6.235-5.193C34.459,15.1,38.418,14.425,40.261,12Zm-.705,15.852L38.5,28.914,37.44,27.857,38.5,25.212Zm4.536-7.325a8.862,8.862,0,0,0,3.382-6.475C47.473,5.578,42.585,3.8,38.5,3.8s-8.976,1.779-8.976,10.258A8.862,8.862,0,0,0,32.9,20.532a6.773,6.773,0,0,0-5.946,6.732v.785a15.387,15.387,0,1,1,23.08,0v-.785A6.773,6.773,0,0,0,44.091,20.532ZM67.989,71.4a15.3,15.3,0,0,1-17.951,0V68.3a4.227,4.227,0,0,1,4.231-4.231h2.853l-1.859,4.648a1.257,1.257,0,0,0,.289,1.378l2.564,2.564a1.287,1.287,0,0,0,1.811,0l2.564-2.564a1.269,1.269,0,0,0,.289-1.378l-1.859-4.648h2.853A4.227,4.227,0,0,1,68.005,68.3V71.4ZM60.777,53.036h0l4.584,2.757c-.513,3.141-4.376,5.722-6.347,5.722a8.078,8.078,0,0,1-6.235-5.193C54.974,56.13,58.933,55.457,60.777,53.036Zm-8.11.689h0c.337-4.3,2.372-6.331,6.347-6.331,3.638,0,5.642,1.715,6.219,5.305l-4.279-2.564a1.294,1.294,0,0,0-1.763.433,1.241,1.241,0,0,0-.112.256C58.437,52.78,54.926,53.517,52.666,53.726Zm7.4,15.162-1.058,1.058-1.058-1.058,1.058-2.645Zm10.482.192V68.3a6.773,6.773,0,0,0-5.946-6.732,8.862,8.862,0,0,0,3.382-6.475c0-8.479-4.889-10.258-8.976-10.258s-8.976,1.779-8.976,10.258a8.862,8.862,0,0,0,3.382,6.475A6.773,6.773,0,0,0,47.473,68.3v.785a15.387,15.387,0,1,1,23.08,0Z" transform="translate(-0.017 0.057)"/></svg>