<svg xmlns="http://www.w3.org/2000/svg" xmlns:xlink="http://www.w3.org/1999/xlink" width="79.997" height="80" viewBox="0 0 79.997 80"><defs><style>.a{fill:url(#a);}</style><linearGradient id="a" x1="-0.066" y1="0.361" x2="1.077" y2="0.349" gradientUnits="objectBoundingBox"><stop offset="0" stop-color="#fd747f"/><stop offset="1" stop-color="#6b1d5f"/></linearGradient></defs><g transform="translate(-0.017)"><g transform="translate(0.017 13.453)"><g transform="translate(0)"><path class="a" d="M79.765,106.334,66.952,86.8a1.562,1.562,0,0,0-1.312-.7H14.452a1.534,1.534,0,0,0-1.3.7L.312,106.272a1.484,1.484,0,0,0-.156.266,1.557,1.557,0,0,0,.25,1.672l6.5,7.422a1.561,1.561,0,1,0,2.344-2.062l-4.234-4.813H26.03L36.593,144.8,24.655,131.178a1.561,1.561,0,1,0-2.344,2.062l16.531,18.875a1.558,1.558,0,0,0,2.344,0L58.78,132.022a1.561,1.561,0,1,0-2.344-2.062l-13,14.844L54,108.756H75.015L65.3,119.85a1.573,1.573,0,0,0,.141,2.2,1.52,1.52,0,0,0,1.031.391,1.581,1.581,0,0,0,1.172-.531l11.984-13.688A1.576,1.576,0,0,0,79.765,106.334Zm-75.281-.7,9.969-15.125,9.922,15.125ZM17.343,89.209H37.124l-9.891,15.078Zm22.672,1.3,9.922,15.125H30.093Zm0,54.859L29.3,108.741H50.749Zm12.813-41.031L42.905,89.209H62.749Zm2.891,1.3L65.64,90.506l9.922,15.125Z" transform="translate(-0.017 -86.1)"/></g></g><g transform="translate(5.265 42.219)"><path class="a" d="M52.912,279.075a7.322,7.322,0,0,1-7.312-7.312,1.563,1.563,0,0,0-3.125,0,7.322,7.322,0,0,1-7.312,7.313,1.563,1.563,0,0,0,0,3.125,7.322,7.322,0,0,1,7.313,7.312,1.563,1.563,0,0,0,3.125,0,7.322,7.322,0,0,1,7.313-7.312,1.563,1.563,0,1,0,0-3.125Zm-8.875,4.953a10.647,10.647,0,0,0-3.391-3.391,10.647,10.647,0,0,0,3.391-3.391,10.647,10.647,0,0,0,3.391,3.391A10.647,10.647,0,0,0,44.037,284.028Z" transform="translate(-33.6 -270.2)"/></g><g transform="translate(64.39)"><path class="a" d="M426.063,6.25a4.7,4.7,0,0,1-4.687-4.688,1.563,1.563,0,1,0-3.125,0,4.7,4.7,0,0,1-4.687,4.688,1.563,1.563,0,0,0,0,3.125,4.7,4.7,0,0,1,4.688,4.688,1.563,1.563,0,1,0,3.125,0,4.7,4.7,0,0,1,4.688-4.688,1.563,1.563,0,0,0,0-3.125Zm-6.25,3.141a7.793,7.793,0,0,0-1.562-1.563,7.793,7.793,0,0,0,1.563-1.563,7.793,7.793,0,0,0,1.563,1.563A7.793,7.793,0,0,0,419.813,9.391Z" transform="translate(-412)"/></g><g transform="translate(60.28 51.953)"><path class="a" d="M388.372,332.953a1.547,1.547,0,0,0-1.109-.453,1.643,1.643,0,0,0-1.109.453,1.547,1.547,0,0,0-.453,1.109,1.614,1.614,0,0,0,.453,1.109,1.547,1.547,0,0,0,1.109.453,1.643,1.643,0,0,0,1.109-.453,1.546,1.546,0,0,0,.453-1.109A1.585,1.585,0,0,0,388.372,332.953Z" transform="translate(-385.7 -332.5)"/></g></g></svg>