<svg xmlns="http://www.w3.org/2000/svg" xmlns:xlink="http://www.w3.org/1999/xlink" width="63" height="75.6" viewBox="0 0 63 75.6"><defs><style>.a{fill:url(#a);}</style><linearGradient id="a" x1="-17.984" y1="1" x2="24.153" y2="1" gradientUnits="objectBoundingBox"><stop offset="0" stop-color="#fd747f"/><stop offset="1" stop-color="#6b1d5f"/></linearGradient></defs><circle class="a" cx="1" cy="1" r="1" transform="translate(30.5 31.724)"/><circle class="a" cx="1" cy="1" r="1" transform="translate(34.313 29.186)"/><circle class="a" cx="1" cy="1" r="1" transform="translate(26.688 29.186)"/><circle class="a" cx="1" cy="1" r="1" transform="translate(22.875 26.648)"/><circle class="a" cx="1" cy="1" r="1" transform="translate(38.125 26.648)"/><circle class="a" cx="1" cy="1" r="1" transform="translate(41.938 24.11)"/><circle class="a" cx="1" cy="1" r="1" transform="translate(19.063 24.11)"/><circle class="a" cx="1" cy="1" r="1" transform="translate(30.5 26.648)"/><circle class="a" cx="1" cy="1" r="1" transform="translate(30.5 41.876)"/><circle class="a" cx="1" cy="1" r="1" transform="translate(30.5 45.683)"/><circle class="a" cx="1" cy="1" r="1" transform="translate(30.5 49.49)"/><circle class="a" cx="1" cy="1" r="1" transform="translate(30.5 53.297)"/><circle class="a" cx="1" cy="1" r="1" transform="translate(30.5 57.103)"/><circle class="a" cx="1" cy="1" r="1" transform="translate(30.5 63.6)"/><path class="a" d="M66.74,73.08H62.96V68.04h-6.3V55.188a9.979,9.979,0,0,0-4.536-8.442L38.768,37.8l13.356-8.946a10.288,10.288,0,0,0,4.536-8.442V7.56h6.3V2.52h3.78A1.19,1.19,0,0,0,68,1.26,1.19,1.19,0,0,0,66.74,0H6.26A1.19,1.19,0,0,0,5,1.26,1.19,1.19,0,0,0,6.26,2.52h3.78V7.56h6.3V20.412a9.979,9.979,0,0,0,4.536,8.442L34.232,37.8,20.876,46.746a10.288,10.288,0,0,0-4.536,8.442V68.04h-6.3v5.04H6.26a1.26,1.26,0,0,0,0,2.52H66.74a1.26,1.26,0,0,0,0-2.52ZM12.56,5.04V2.52H60.44V5.04H12.56Zm9.7,21.8a7.505,7.505,0,0,1-3.4-6.3V7.56H54.14V20.412a7.505,7.505,0,0,1-3.4,6.3L36.5,36.288Zm-3.4,28.35a7.505,7.505,0,0,1,3.4-6.3L36.5,39.312l14.238,9.45a7.505,7.505,0,0,1,3.4,6.3V68.04H18.86ZM12.56,70.56H60.44v2.52H12.56Z" transform="translate(-5)"/></svg>