<svg xmlns="http://www.w3.org/2000/svg" xmlns:xlink="http://www.w3.org/1999/xlink" width="61.442" height="74" viewBox="0 0 61.442 74"><defs><style>.a{fill:url(#a);}</style><linearGradient id="a" x1="-2.439" y1="0.293" x2="3.543" y2="0.317" gradientUnits="objectBoundingBox"><stop offset="0" stop-color="#fd747f"/><stop offset="1" stop-color="#6b1d5f"/></linearGradient></defs><path class="a" d="M101.18,65.862,91.389,42.218a1.182,1.182,0,0,0-2.188.9l8.862,21.377-8.075-2.345a1.179,1.179,0,0,0-1.369.567L84.557,70.08,75.05,47.145a23.787,23.787,0,1,0-28.287-23.36,23.574,23.574,0,0,0,4.707,14.183L39.915,65.862a1.178,1.178,0,0,0,1.417,1.59L50.855,64.7l4.785,8.689A1.173,1.173,0,0,0,56.68,74h.063a1.2,1.2,0,0,0,1.023-.724l9.161-22.117a1.182,1.182,0,0,0-2.188-.9l-8.2,19.818-4.061-7.367a1.179,1.179,0,0,0-1.369-.567l-8.075,2.345L53.169,40.014A23.751,23.751,0,0,0,70.548,47.57c.708,0,1.4-.031,2.094-.094L83.314,73.244a1.146,1.146,0,0,0,1.023.724H84.4a1.211,1.211,0,0,0,1.039-.614l4.785-8.689,9.524,2.755a1.2,1.2,0,0,0,1.212-.346,1.147,1.147,0,0,0,.22-1.212ZM49.124,23.785A21.424,21.424,0,1,1,70.548,45.209,21.447,21.447,0,0,1,49.124,23.785Z" transform="translate(-39.824)"/><path class="a" d="M175.27,69.917a1.184,1.184,0,0,0-.929-.8l-7.949-1.338-3.715-7.147a1.182,1.182,0,0,0-1.055-.63,1.213,1.213,0,0,0-1.055.63l-3.715,7.147L148.9,69.114a1.184,1.184,0,0,0-.929.8,1.161,1.161,0,0,0,.283,1.2l5.651,5.73-1.181,7.965a1.177,1.177,0,0,0,1.7,1.228l7.21-3.589,7.21,3.589a1.258,1.258,0,0,0,.519.126,1.207,1.207,0,0,0,.693-.22,1.168,1.168,0,0,0,.472-1.133l-1.2-7.965,5.651-5.746A1.21,1.21,0,0,0,175.27,69.917Zm-8.028,5.7a1.236,1.236,0,0,0-.331,1.007l.944,6.312-5.714-2.849a1.259,1.259,0,0,0-.519-.126,1.2,1.2,0,0,0-.519.126l-5.714,2.849.944-6.312A1.2,1.2,0,0,0,156,75.615l-4.471-4.549,6.3-1.055a1.18,1.18,0,0,0,.85-.614l2.944-5.667,2.944,5.651a1.18,1.18,0,0,0,.85.614l6.3,1.055-4.471,4.565Z" transform="translate(-130.899 -50.555)"/><path class="a" d="M150.845,50.259a1.174,1.174,0,0,0-1.322,1.007,16.7,16.7,0,1,1,0-4.408,1.175,1.175,0,0,0,2.33-.315,19,19,0,1,0,.016,5.037,1.186,1.186,0,0,0-1.023-1.322Z" transform="translate(-102.24 -25.278)"/></svg>