<?xml version="1.0" encoding="utf-8"?>
<!-- Generator: Adobe Illustrator 23.1.0, SVG Export Plug-In . SVG Version: 6.00 Build 0)  -->
<svg version="1.1" id="Layer_1" xmlns="http://www.w3.org/2000/svg" xmlns:xlink="http://www.w3.org/1999/xlink" x="0px" y="0px"
	 viewBox="0 0 384 384" style="enable-background:new 0 0 384 384;" xml:space="preserve">
<style type="text/css">
	.st0{fill:#6C1D5F;}
</style>
<path class="st0" d="M310.3,72.6c-6.5-15.8-21.7-25.6-39-24.7l-6.2,0.3l0.3-6.1c0.9-17.1-8.7-32.5-24.6-39
	c-15.9-6.6-33.5-2.6-45,10.2l-4.1,4.6l-4.1-4.5c-11.5-12.8-29.2-16.8-45-10.2c-15.8,6.6-25.5,21.9-24.6,39l0.3,6.2l-6.2-0.3
	c-17.2-1-32.4,8.8-39,24.7c-6.5,15.8-2.6,33.4,10.1,44.9l4.6,4.1l-4.6,4.2c-12.7,11.5-16.6,29.2-10.1,45
	c4.4,10.6,12.7,18.3,22.6,22.1v159c0,12.4,7,23.5,18.2,28.8c11.2,5.4,24.2,3.9,33.8-3.9c0.3-0.2,0.6-0.5,0.9-0.8l43.1-40.1
	l43.1,40.1c0.3,0.3,0.6,0.5,0.9,0.8c5.8,4.7,12.8,7.1,19.9,7.1c4.7,0,9.4-1.1,13.9-3.2c11.2-5.4,18.2-16.4,18.2-28.8V192.9
	c10-3.8,18.2-11.5,22.6-22c6.6-15.8,2.6-33.5-10.1-45.1l-4.6-4.1l4.6-4.1C312.9,106.1,316.9,88.5,310.3,72.6z M122.5,109.8l-17.7-16
	c-3.7-3.4-2.7-7.4-2-9c0.7-1.6,2.8-5.2,7.8-5l23.8,1.2c4.5,0.3,8.9-1.5,12.1-4.7c3.2-3.2,4.9-7.6,4.7-12.1L150,40.5
	c-0.3-5.1,3.3-7.1,4.9-7.8c1.6-0.6,5.6-1.8,9,2.1l16,17.7c6.1,6.7,17.7,6.7,23.7,0l16-17.7c3.4-3.8,7.4-2.7,9-2
	c1.6,0.6,5.2,2.7,4.9,7.8l-1.2,23.8c-0.2,4.5,1.5,8.9,4.7,12.1c3.2,3.2,7.5,4.9,12.1,4.7l23.8-1.2c5.2-0.2,7.2,3.4,7.8,5
	c0.6,1.6,1.7,5.5-2,8.9l-17.8,16c-3.4,3-5.3,7.4-5.3,11.9s1.9,8.8,5.3,11.9l17.7,15.9c3.8,3.5,2.7,7.5,2,9.1c-0.6,1.5-2.6,5-7.3,5
	c-0.3,0-0.6,0-1.2,0l-23.1-1.3c-4.6-0.3-9,1.4-12.2,4.6c-3.2,3.2-4.9,7.6-4.7,12.1l1.2,24c0.3,5-3.3,7.1-4.9,7.7
	c-1.6,0.7-5.6,1.8-9-2l-16-17.8c-3-3.4-7.4-5.3-11.9-5.3c-4.5,0-8.8,1.9-11.9,5.3l-16,17.7c-3.4,3.8-7.4,2.7-9,2
	c-1.6-0.6-5.2-2.7-4.9-7.7l1.2-23.9c0.2-4.5-1.5-8.9-4.7-12.1c-3.2-3.2-7.6-4.9-12.2-4.6l-23.1,1.3c-0.3,0-0.5,0-0.7,0
	c-5,0.2-7.2-3.4-7.8-5c-0.7-1.6-1.8-5.6,2-9l17.8-16c3.4-3,5.3-7.4,5.3-11.9S125.9,112.8,122.5,109.8z M212.7,311.8
	c-0.3-0.2-0.5-0.5-0.8-0.7c-11.6-9.4-28.5-9.4-40.1,0c-0.3,0.2-0.6,0.5-0.8,0.7l-43.1,40.1V229.7c3.9,4.5,8.9,8.1,14.8,10.6
	c15.9,6.6,33.6,2.6,45.1-10.1l4.1-4.6l4.1,4.6c7.8,8.6,18.5,13.2,29.5,13.2c5.2,0,10.5-1,15.6-3.2c5.9-2.4,10.9-6.1,14.8-10.6
	l0,122.2L212.7,311.8z"/>
</svg>
