<svg xmlns="http://www.w3.org/2000/svg" xmlns:xlink="http://www.w3.org/1999/xlink" width="93.213" height="82.24" viewBox="0 0 93.213 82.24"><defs><style>.a{fill:#fb703d;}.b{fill:url(#a);}</style><linearGradient id="a" x1="-0.248" y1="0.5" x2="1.238" y2="0.5" gradientUnits="objectBoundingBox"><stop offset="0" stop-color="#fd747f"/><stop offset="1" stop-color="#6b1d5f"/></linearGradient></defs><g transform="translate(6.757 6.757)"><g transform="translate(0 0)"><path class="a" d="M45.948,67.25a8.834,8.834,0,1,0,8.834,8.834A8.844,8.844,0,0,0,45.948,67.25Zm0,14.927a6.094,6.094,0,1,1,6.094-6.094A6.1,6.1,0,0,1,45.948,82.177Z" transform="translate(-37.114 -67.25)"/></g></g><g transform="translate(14.221 0)"><path class="a" d="M79.482,30.135a1.37,1.37,0,0,0-1.37,1.37v2.756a1.37,1.37,0,1,0,2.74,0V31.5A1.37,1.37,0,0,0,79.482,30.135Z" transform="translate(-78.112 -30.135)"/></g><g transform="translate(22.328 4.165)"><g transform="translate(0 0)"><path class="a" d="M126.929,53.414a1.37,1.37,0,0,0-1.938,0l-1.949,1.949A1.37,1.37,0,0,0,124.98,57.3l1.949-1.949A1.37,1.37,0,0,0,126.929,53.414Z" transform="translate(-122.641 -53.013)"/></g></g><g transform="translate(25.686 14.221)"><g transform="translate(0 0)"><path class="a" d="M145.213,108.247h-2.756a1.37,1.37,0,0,0,0,2.74h2.756a1.37,1.37,0,0,0,0-2.74Z" transform="translate(-141.087 -108.247)"/></g></g><g transform="translate(22.328 22.328)"><g transform="translate(0 0)"><path class="a" d="M126.929,155.127l-1.949-1.949a1.37,1.37,0,1,0-1.938,1.937l1.949,1.949a1.37,1.37,0,1,0,1.938-1.938Z" transform="translate(-122.641 -152.777)"/></g></g><g transform="translate(14.221 25.686)"><path class="a" d="M79.482,171.222a1.37,1.37,0,0,0-1.37,1.37v2.756a1.37,1.37,0,1,0,2.74,0v-2.756A1.37,1.37,0,0,0,79.482,171.222Z" transform="translate(-78.112 -171.222)"/></g><g transform="translate(4.165 22.328)"><g transform="translate(0 0)"><path class="a" d="M27.166,153.178a1.37,1.37,0,0,0-1.938,0l-1.949,1.949a1.37,1.37,0,0,0,1.938,1.938l1.949-1.949A1.37,1.37,0,0,0,27.166,153.178Z" transform="translate(-22.878 -152.777)"/></g></g><g transform="translate(0 14.221)"><g transform="translate(0 0)"><path class="a" d="M4.126,108.247H1.37a1.37,1.37,0,1,0,0,2.74H4.126a1.37,1.37,0,1,0,0-2.74Z" transform="translate(0 -108.247)"/></g></g><g transform="translate(4.165 4.165)"><g transform="translate(0 0)"><path class="a" d="M27.166,55.363l-1.949-1.949a1.37,1.37,0,1,0-1.938,1.938L25.228,57.3a1.37,1.37,0,0,0,1.938-1.938Z" transform="translate(-22.878 -53.013)"/></g></g><g transform="translate(0.323 9.428)"><g transform="translate(0 0)"><path class="b" d="M94,150.238a12.8,12.8,0,0,0-7.89-2.205c-2.523-3.476-7.284-6.456-13.842-8.652a68.493,68.493,0,0,0-13.445-2.931l9.816-24.627a17.334,17.334,0,0,1,3.83,3.777,1.4,1.4,0,0,0,1.482.6,18.744,18.744,0,0,1,17.957,7.2,1.37,1.37,0,0,0,2.465-.612A47.152,47.152,0,0,0,92.783,104.4a1.37,1.37,0,1,0-2.624.789,45.013,45.013,0,0,1,1.728,14.022,21.8,21.8,0,0,0-16.235-5.984c.023-.071.044-.14.067-.21a51.187,51.187,0,0,0,2.261-10.062,39.425,39.425,0,0,0,0-9.423,29.676,29.676,0,0,0-1.174-5.344l-.012-.039a26.535,26.535,0,0,1,11.259,11.7A1.37,1.37,0,1,0,90.5,98.629a29.4,29.4,0,0,0-15.859-14.5c-9.8-3.905-20-2.621-29.494,3.715A47.335,47.335,0,0,0,33.738,98.62a1.37,1.37,0,0,0,1.369,2.138,18.749,18.749,0,0,1,17.945,7.07,1.422,1.422,0,0,0,1.579.634,17.346,17.346,0,0,1,5.33-.1L49.014,135.827c-.276,0-.551-.007-.829-.007a82.991,82.991,0,0,0-17.936,1.87,1.37,1.37,0,0,0,.594,2.675,81.392,81.392,0,0,1,17.342-1.8c2.858,0,5.717.136,8.561.418h.031a67.289,67.289,0,0,1,14.619,3c5.222,1.749,9.254,4.054,11.621,6.608a12.94,12.94,0,0,0-3.426,1.651,10.044,10.044,0,0,1-11.332,0,12.77,12.77,0,0,0-14.408,0,10.044,10.044,0,0,1-11.332,0,12.77,12.77,0,0,0-14.408,0,10.044,10.044,0,0,1-11.332,0,12.93,12.93,0,0,0-3.426-1.651c2.363-2.551,6.388-4.853,11.6-6.6a1.37,1.37,0,0,0-.871-2.6c-6.547,2.2-11.3,5.173-13.82,8.645a12.8,12.8,0,0,0-7.89,2.205,1.37,1.37,0,0,0,1.538,2.268,10.058,10.058,0,0,1,6.74-1.692,1.342,1.342,0,0,0,.252.032,10.107,10.107,0,0,1,4.34,1.661,12.77,12.77,0,0,0,14.408,0,10.044,10.044,0,0,1,11.332,0,12.77,12.77,0,0,0,14.408,0,10.044,10.044,0,0,1,11.332,0,12.77,12.77,0,0,0,14.408,0,10.109,10.109,0,0,1,4.33-1.659,1.358,1.358,0,0,0,.268-.034,10.058,10.058,0,0,1,6.734,1.693A1.37,1.37,0,1,0,94,150.238ZM56.49,105.492l.044-.092a49.262,49.262,0,0,1,4.5-7.654,1.37,1.37,0,1,0-2.22-1.606,51.047,51.047,0,0,0-3.745,6.068c-.4.76-.81,1.528-1.154,2.316l-.018.038a21.8,21.8,0,0,0-15.9-6.825,46.151,46.151,0,0,1,8.745-7.658,32.087,32.087,0,0,1,11.9-5,26.3,26.3,0,0,1,11.7.5l-.048.027a30.258,30.258,0,0,0-5.828,4.2c-.691.631-1.365,1.28-2.011,1.957a1.37,1.37,0,1,0,1.983,1.891,31.188,31.188,0,0,1,5.9-4.889,21.661,21.661,0,0,1,3.126-1.653,21.2,21.2,0,0,1,1.006,2.864c1.652,5.951,1.206,12.373-.242,18.316q-.467,1.917-1.08,3.8l-.013.039a21.111,21.111,0,0,0-6.746-4.742l-.107-.047A21.44,21.44,0,0,0,56.49,105.492Zm-.5,30.661q-.953-.082-1.918-.143c-.711-.049-1.423-.085-2.135-.114l10.745-26.959a19.235,19.235,0,0,1,1.917.661c.1.041,1.672.76,1.669.768Z" transform="translate(-1.772 -81.919)"/></g></g></svg>