<?xml version="1.0" encoding="utf-8"?>
<!-- Generator: Adobe Illustrator 23.1.1, SVG Export Plug-In . SVG Version: 6.00 Build 0)  -->
<svg version="1.1" id="Layer_1" xmlns="http://www.w3.org/2000/svg" xmlns:xlink="http://www.w3.org/1999/xlink" x="0px" y="0px"
	 viewBox="0 0 512 512" style="enable-background:new 0 0 512 512;" xml:space="preserve">
<style type="text/css">
	.st0{fill:#6C1D5F;}
</style>
<g>
	<g>
		<g>
			<path class="st0" d="M511.5,223.9l-59-181.6c-1.7-5.3-7.3-8.1-12.6-6.4L6.9,176.6c-5.3,1.7-8.1,7.3-6.4,12.6l27.9,85.9
				c0,0.2,0,0.3,0,0.5v190.9c0,5.5,4.5,10,10,10h455.3c5.5,0,10-4.5,10-10V275.7c0-5.5-4.5-10-10-10h-78.3l89.7-29.2
				C510.3,234.8,513.2,229.2,511.5,223.9z M483.7,285.7v170.9H48.4V285.7h55.4v111.4c0,5.5,4.5,10,10,10s10-4.5,10-10V285.7h228.4
				H483.7z M350.6,265.7H46.4l-23.8-73.1l52.7-17.1l20.2,61.3c1.4,4.2,5.3,6.9,9.5,6.9c1,0,2.1-0.2,3.1-0.5
				c5.2-1.7,8.1-7.4,6.4-12.6l-20.1-61.2L436.6,58l52.8,162.6L350.6,265.7z"/>
			<path class="st0" d="M421.4,101.8c-1.7-5.3-7.3-8.1-12.6-6.4l-260.7,84.7c-5.3,1.7-8.1,7.3-6.4,12.6c1.4,4.2,5.3,6.9,9.5,6.9
				c1,0,2.1-0.2,3.1-0.5L415,114.5C420.2,112.7,423.1,107.1,421.4,101.8z"/>
			<path class="st0" d="M377.4,166.8l49.4-16c5.3-1.7,8.1-7.3,6.4-12.6c-1.7-5.3-7.3-8.1-12.6-6.4l-49.4,16
				c-5.3,1.7-8.1,7.3-6.4,12.6c1.4,4.2,5.3,6.9,9.5,6.9C375.4,167.3,376.4,167.1,377.4,166.8z"/>
			<path class="st0" d="M419.1,212.7c1.4,4.2,5.3,6.9,9.5,6.9c1,0,2.1-0.2,3.1-0.5l15.6-5.1c5.3-1.7,8.1-7.3,6.4-12.6
				c-1.7-5.3-7.3-8.1-12.6-6.4l-15.6,5.1C420.3,201.8,417.4,207.5,419.1,212.7z"/>
			<path class="st0" d="M390.7,211.5l-15.6,5.1c-5.3,1.7-8.1,7.3-6.4,12.6c1.4,4.2,5.3,6.9,9.5,6.9c1,0,2.1-0.2,3.1-0.5l15.6-5.1
				c5.3-1.7,8.1-7.3,6.4-12.6C401.6,212.6,395.9,209.8,390.7,211.5z"/>
			<path class="st0" d="M251.1,186.8l-91.3,29.7c-5.3,1.7-8.1,7.3-6.4,12.6c1.4,4.2,5.3,6.9,9.5,6.9c1,0,2.1-0.2,3.1-0.5l91.3-29.7
				c5.3-1.7,8.1-7.3,6.4-12.6C262,188,256.4,185.1,251.1,186.8z"/>
			<path class="st0" d="M113.8,420.4c-5.5,0-10,4.5-10,10v3.9c0,5.5,4.5,10,10,10s10-4.5,10-10v-3.9
				C123.8,424.8,119.3,420.4,113.8,420.4z"/>
			<path class="st0" d="M161.6,322.7c0,5.5,4.5,10,10,10h274.1c5.5,0,10-4.5,10-10s-4.5-10-10-10H171.6
				C166,312.7,161.6,317.1,161.6,322.7z"/>
			<path class="st0" d="M445.7,350.8h-51.9c-5.5,0-10,4.5-10,10s4.5,10,10,10h51.9c5.5,0,10-4.5,10-10
				C455.7,355.3,451.2,350.8,445.7,350.8z"/>
			<path class="st0" d="M445.7,417.4h-16.4c-5.5,0-10,4.5-10,10s4.5,10,10,10h16.4c5.5,0,10-4.5,10-10S451.2,417.4,445.7,417.4z"/>
			<path class="st0" d="M392.6,417.4h-16.4c-5.5,0-10,4.5-10,10s4.5,10,10,10h16.4c5.5,0,10-4.5,10-10S398.1,417.4,392.6,417.4z"/>
			<path class="st0" d="M267.5,350.8h-96c-5.5,0-10,4.5-10,10s4.5,10,10,10h96c5.5,0,10-4.5,10-10
				C277.5,355.3,273,350.8,267.5,350.8z"/>
		</g>
	</g>
</g>
</svg>
