<svg xmlns="http://www.w3.org/2000/svg" xmlns:xlink="http://www.w3.org/1999/xlink" width="77.37" height="77.353" viewBox="0 0 77.37 77.353"><defs><style>.a{fill:url(#a);}</style><linearGradient id="a" x1="-0.193" y1="0.5" x2="1.152" y2="0.5" gradientUnits="objectBoundingBox"><stop offset="0" stop-color="#fd747f"/><stop offset="1" stop-color="#6b1d5f"/></linearGradient></defs><g transform="translate(0 0)"><path class="a" d="M38.687.1A38.69,38.69,0,0,0,3.121,23.548l-.483.161.193.564A38.678,38.678,0,1,0,38.687.1ZM69.032,58.276l-1.982-1.982V51.652a1.448,1.448,0,0,0-.129-.58l-5.028-10.04V36.182a1.276,1.276,0,0,0-.58-1.08l-3.868-2.578a1.236,1.236,0,0,0-1.031-.177l-4.738,1.176-7.961-3.416-1.1-7.671,3.03-3.03h6.511l2.192,3.287a1.271,1.271,0,0,0,.854.548l7.735,1.289a1.306,1.306,0,0,0,.612-.048l7.123-2.369A35.952,35.952,0,0,1,69.032,58.276ZM63.714,12.8l-2.095,1.4-5.85-1.176-3.787-1.257a1.233,1.233,0,0,0-.725-.032L46.47,12.928l-2.095-.693,1.547-3.126H50.29a1.448,1.448,0,0,0,.58-.129l4.464-2.224A36.364,36.364,0,0,1,63.714,12.8ZM24.554,5.547,27.648,7.61a1.347,1.347,0,0,0,.5.193L34.4,8.851l-.612,1.821-3.255,1.08a1.257,1.257,0,0,0-.693.564l-3.706,6.172-5.946,3.561L11.42,23.306a1.3,1.3,0,0,0-1.112,1.273v3.868a1.305,1.305,0,0,0,.371.919l2.208,2.208v2.208L7.52,30.2,5.57,24.369A36.463,36.463,0,0,1,24.554,5.547ZM20.9,47.817l-5.834-1.16L12.9,42.338v-3.03l4.8-4.8,1.773,3.561a1.3,1.3,0,0,0,1.16.709h8.3l3.5,5.818a1.279,1.279,0,0,0,1.112.628h3.578l-.9,4.528-4.883,4.883a1.362,1.362,0,0,0-.387.919v3.223L26.31,62.256a1.3,1.3,0,0,0-.516,1.031v4.657l-1.612-.532-2.256-5.656V49.074A1.292,1.292,0,0,0,20.9,47.817ZM17.012,67.639A36.121,36.121,0,0,1,4.152,28.221l1.064,3.207a1.37,1.37,0,0,0,.5.661l6.43,4.287-1.466,1.466a1.278,1.278,0,0,0-.371.919v3.868a1.448,1.448,0,0,0,.129.58l2.578,5.157a1.316,1.316,0,0,0,.9.693l5.415,1.08V61.966a1.293,1.293,0,0,0,.1.483L22.008,68.9a1.283,1.283,0,0,0,.79.741l3.868,1.289a1.113,1.113,0,0,0,.4.064A1.293,1.293,0,0,0,28.357,69.7V63.9L33,60.419a1.3,1.3,0,0,0,.516-1.031V56.052L38.3,51.266a1.264,1.264,0,0,0,.355-.661l1.289-6.446a1.283,1.283,0,0,0-1.015-1.515,1.252,1.252,0,0,0-.258-.032H34.239l-3.5-5.818a1.279,1.279,0,0,0-1.112-.628h-8.2L19.22,31.718a1.3,1.3,0,0,0-2.063-.338l-1.676,1.66V30.993a1.305,1.305,0,0,0-.371-.919L12.9,27.866V25.707l7.913-1.128A1.247,1.247,0,0,0,21.3,24.4l6.446-3.868a1.25,1.25,0,0,0,.435-.435l3.626-6.043,3.416-1.144a1.3,1.3,0,0,0,.822-.822l1.289-3.868a1.288,1.288,0,0,0-.822-1.628l-.193-.048L28.857,5.305l-1.305-.87a35.987,35.987,0,0,1,24.8.919L49.983,6.53H45.133a1.314,1.314,0,0,0-1.16.709L41.394,12.4a1.269,1.269,0,0,0,.58,1.724.674.674,0,0,0,.161.064L46,15.474a1.233,1.233,0,0,0,.725.032l4.786-1.193,3.513,1.176c.048.016.1.032.161.048l6.446,1.289a1.285,1.285,0,0,0,.967-.193l2.933-1.95a35.981,35.981,0,0,1,3.884,5.189l-6.349,2.111L56.2,20.84l-2.272-3.4a1.352,1.352,0,0,0-1.064-.58H45.133a1.305,1.305,0,0,0-.919.371L40.347,21.1a1.317,1.317,0,0,0-.371,1.1l1.289,9.024a1.272,1.272,0,0,0,.774,1l9.024,3.868a1.306,1.306,0,0,0,.822.064l4.609-1.144,2.82,1.885v4.464a1.448,1.448,0,0,0,.129.58l5.028,10.04v4.851a1.3,1.3,0,0,0,.371.919l2.691,2.691A36.091,36.091,0,0,1,17.012,67.639Z" transform="translate(0.007 -0.1)"/></g></svg>