<?xml version="1.0" encoding="utf-8"?>
<!-- Generator: Adobe Illustrator 23.1.1, SVG Export Plug-In . SVG Version: 6.00 Build 0)  -->
<svg version="1.1" id="Layer_1" xmlns="http://www.w3.org/2000/svg" xmlns:xlink="http://www.w3.org/1999/xlink" x="0px" y="0px"
	 viewBox="0 0 612 792" style="enable-background:new 0 0 612 792;" xml:space="preserve">
<style type="text/css">
	.st0{display:none;fill:none;stroke:#630460;}
	.st1{fill:none;stroke:#630460;}
</style>
<g>
	<path class="st0" d="M85.36,432.64c0-52.64,0-105.27,0-157.91c149.47,0,298.94,0,448.42,0c0,52.64,0,105.27,0,157.91
		C384.31,432.64,234.83,432.64,85.36,432.64z M280.17,426.08c-24.19-24.17-48.2-48.17-72.25-72.2
		c24.25-24.27,48.44-48.47,72.71-72.75c-0.35-0.02-0.59-0.05-0.84-0.05c-14.8,0-29.61-0.01-44.41,0.02c-0.45,0-1,0.25-1.32,0.57
		c-3.33,3.28-6.61,6.61-9.91,9.92c-12.87,12.88-25.74,25.76-38.62,38.64c-0.22,0.22-0.45,0.43-0.84,0.79
		c-0.24-0.31-0.42-0.61-0.66-0.85c-7.82-7.88-15.64-15.75-23.46-23.62c-8.25-8.3-16.49-16.6-24.76-24.88
		c-0.32-0.32-0.88-0.56-1.32-0.56c-14.75-0.03-29.49-0.02-44.24-0.02c-0.26,0-0.53,0.03-0.96,0.06
		c24.23,24.33,48.31,48.52,72.42,72.73c-23.96,24.08-47.83,48.08-71.84,72.22c0.41,0,0.63,0,0.84,0c14.69,0,29.38,0,44.06-0.02
		c0.42,0,0.94-0.24,1.24-0.54c4.94-4.88,9.85-9.78,14.76-14.68c9.08-9.05,18.15-18.11,27.22-27.16c2.07-2.07,4.15-4.12,6.23-6.18
		c0.18-0.17,0.37-0.33,0.71-0.62c0.28,0.34,0.51,0.68,0.79,0.96c15.88,15.88,31.76,31.75,47.64,47.63c0.44,0.44,0.87,0.62,1.49,0.62
		c14.72-0.02,29.43-0.01,44.15-0.01C279.31,426.08,279.59,426.08,280.17,426.08z M347.21,387.47c0.46,0.33,0.74,0.53,1.01,0.73
		c2.48,1.83,5.12,3.37,7.98,4.53c6.6,2.67,13.43,3.24,20.42,2.24c7.07-1.01,13.46-3.69,18.79-8.42
		c10.32-9.14,14.77-20.74,13.54-34.43c-0.84-9.32-4.65-17.33-11.31-23.96c-4.58-4.56-9.85-7.91-16.12-9.61
		c-5.06-1.37-10.21-1.66-15.42-1.33c-6.7,0.42-12.76,2.56-18.09,6.68c-0.19,0.15-0.41,0.28-0.79,0.53c0-10.06,0-19.95,0-29.86
		c-5.8,0-11.45,0-17.12,0c0,33.03,0,65.98,0,98.94c5.72,0,11.38,0,17.12,0C347.21,391.53,347.21,389.62,347.21,387.47z
		 M511.54,327.43c-0.07,0.02-0.14,0.05-0.2,0.07c-0.18-0.23-0.36-0.46-0.54-0.7c-2.84-3.76-6.48-6.45-10.92-8.02
		c-5.95-2.1-12.09-2.35-18.25-1.48c-13.05,1.84-22.34,9.04-28.14,20.68c-4.33,8.7-5.06,17.96-2.95,27.39
		c2.36,10.54,8.1,18.82,17.43,24.4c9.4,5.62,19.58,6.6,30.13,4.37c5.63-1.19,10.12-4.18,13.04-9.27c0.05-0.08,0.13-0.14,0.2-0.21
		c0.07,0.02,0.14,0.03,0.21,0.05c0,2.93,0,5.87,0,8.79c5.62,0,11.08,0,16.51,0c0-24.93,0-49.79,0-74.65c-5.52,0-10.96,0-16.51,0
		C511.54,321.74,511.54,324.59,511.54,327.43z M320.7,361.59c0-2.23,0.05-4.32-0.01-6.41c-0.13-4.67-0.95-9.21-2.54-13.62
		c-3.07-8.49-8.87-14.7-16.39-19.38c-8.19-5.1-17.13-7.07-26.68-5.38c-10.17,1.8-18.34,7.1-24.46,15.33
		c-7.37,9.92-9.36,21.1-6.37,33c2.9,11.54,9.65,20.27,20.37,25.69c6.45,3.26,13.36,4.27,20.53,3.83c5.39-0.33,10.51-1.66,15.29-4.2
		c7.35-3.91,12.59-9.82,16.24-17.21c0.64-1.29,1.19-2.63,1.81-4.01c-0.28-0.02-0.4-0.04-0.51-0.04c-5.91,0-11.82-0.01-17.73,0.02
		c-0.34,0-0.79,0.3-0.98,0.59c-1.88,2.84-4.34,5.01-7.43,6.46c-5.44,2.55-11.15,2.79-16.9,1.57c-6.59-1.39-11.26-5.2-13.39-11.75
		c-0.46-1.42-0.67-2.92-1.02-4.51C280.74,361.59,300.7,361.59,320.7,361.59z M421.27,393.5c5.52,0,11.01,0,16.49,0
		c0-24.93,0-49.79,0-74.65c-5.53,0-10.99,0-16.49,0C421.27,343.76,421.27,368.62,421.27,393.5z M437.76,310.97
		c0-5.5,0-10.95,0-16.42c-5.53,0-10.99,0-16.47,0c0,5.51,0,10.96,0,16.42C426.81,310.97,432.27,310.97,437.76,310.97z"/>
	<path class="st1" d="M280.17,426.08c-0.58,0-0.86,0-1.15,0c-14.72,0-29.43,0-44.15,0.01c-0.63,0-1.05-0.18-1.49-0.62
		c-15.87-15.88-31.76-31.75-47.64-47.63c-0.28-0.28-0.51-0.61-0.79-0.96c-0.33,0.29-0.53,0.44-0.71,0.62
		c-2.08,2.06-4.16,4.11-6.23,6.18c-9.08,9.05-18.15,18.11-27.22,27.16c-4.91,4.9-9.82,9.8-14.76,14.68c-0.3,0.3-0.82,0.54-1.24,0.54
		c-14.69,0.03-29.38,0.02-44.06,0.02c-0.22,0-0.43,0-0.84,0c24.01-24.13,47.88-48.13,71.84-72.22
		c-24.1-24.21-48.19-48.4-72.42-72.73c0.44-0.03,0.7-0.06,0.96-0.06c14.75,0,29.49-0.01,44.24,0.02c0.45,0,1.01,0.24,1.32,0.56
		c8.27,8.28,16.51,16.58,24.76,24.88c7.82,7.87,15.64,15.74,23.46,23.62c0.24,0.24,0.42,0.54,0.66,0.85
		c0.39-0.37,0.62-0.57,0.84-0.79c12.87-12.88,25.75-25.76,38.62-38.64c3.3-3.31,6.59-6.63,9.91-9.92c0.32-0.32,0.88-0.57,1.32-0.57
		c14.8-0.03,29.61-0.02,44.41-0.02c0.25,0,0.49,0.03,0.84,0.05c-24.27,24.28-48.46,48.49-72.71,72.75
		C231.97,377.91,255.98,401.9,280.17,426.08z"/>
	<path class="st1" d="M347.21,387.47c0,2.15,0,4.06,0,6.03c-5.74,0-11.4,0-17.12,0c0-32.96,0-65.91,0-98.94c5.67,0,11.33,0,17.12,0
		c0,9.9,0,19.79,0,29.86c0.38-0.26,0.6-0.38,0.79-0.53c5.33-4.12,11.39-6.26,18.09-6.68c5.21-0.33,10.36-0.04,15.42,1.33
		c6.27,1.7,11.55,5.05,16.12,9.61c6.66,6.63,10.47,14.64,11.31,23.96c1.23,13.69-3.23,25.29-13.54,34.43
		c-5.33,4.73-11.73,7.41-18.79,8.42c-6.99,1-13.83,0.43-20.42-2.24c-2.86-1.16-5.5-2.7-7.98-4.53
		C347.95,388,347.67,387.8,347.21,387.47z M391.21,356.15c-0.09-1.03-0.15-2.06-0.28-3.08c-1.3-10.39-10.2-18.62-20.67-19.05
		c-6.41-0.26-11.99,1.82-16.37,6.57c-5.07,5.5-6.77,12.09-5.72,19.41c1.45,10.04,10.71,19.57,23.31,18.01
		C383,376.6,391.14,367.71,391.21,356.15z"/>
	<path class="st1" d="M511.54,327.43c0-2.84,0-5.69,0-8.58c5.55,0,10.99,0,16.51,0c0,24.86,0,49.72,0,74.65c-5.44,0-10.9,0-16.51,0
		c0-2.93,0-5.86,0-8.79c-0.07-0.02-0.14-0.03-0.21-0.05c-0.07,0.07-0.15,0.13-0.2,0.21c-2.92,5.1-7.4,8.08-13.04,9.27
		c-10.55,2.23-20.73,1.25-30.13-4.37c-9.32-5.57-15.06-13.86-17.43-24.4c-2.11-9.42-1.38-18.69,2.95-27.39
		c5.79-11.64,15.09-18.84,28.14-20.68c6.16-0.87,12.3-0.62,18.25,1.48c4.45,1.57,8.08,4.26,10.92,8.02c0.18,0.24,0.36,0.47,0.54,0.7
		C511.4,327.48,511.47,327.45,511.54,327.43z M509.57,356.04c-0.01-3.36-0.67-6.61-2.13-9.64c-6.96-14.45-24.06-16.63-34.38-6.27
		c-6.73,6.75-7.99,17.75-3.19,26.42c4.57,8.26,13.58,12.04,21.6,10.84C501.63,375.88,509.6,366.4,509.57,356.04z"/>
	<path class="st1" d="M320.7,361.59c-20,0-39.95,0-60.16,0c0.35,1.59,0.56,3.09,1.02,4.51c2.13,6.54,6.8,10.35,13.39,11.75
		c5.75,1.22,11.46,0.98,16.9-1.57c3.09-1.45,5.55-3.62,7.43-6.46c0.19-0.29,0.65-0.59,0.98-0.59c5.91-0.04,11.82-0.03,17.73-0.02
		c0.11,0,0.23,0.02,0.51,0.04c-0.62,1.38-1.17,2.71-1.81,4.01c-3.65,7.39-8.89,13.31-16.24,17.21c-4.78,2.54-9.89,3.87-15.29,4.2
		c-7.17,0.44-14.08-0.57-20.53-3.83c-10.73-5.42-17.48-14.16-20.37-25.69c-2.99-11.9-1-23.08,6.37-33
		c6.12-8.23,14.28-13.52,24.46-15.33c9.55-1.69,18.48,0.28,26.68,5.38c7.52,4.68,13.33,10.89,16.39,19.38
		c1.59,4.4,2.4,8.95,2.54,13.62C320.75,357.27,320.7,359.36,320.7,361.59z M260.91,347.51c13.7,0,27.25,0,40.83,0
		c0-0.16,0.03-0.28,0-0.38c-1.2-3.97-3.16-7.48-6.39-10.19c-3.59-3.01-7.81-4.31-12.41-4.66c-7.34-0.56-13.37,1.99-18.1,7.58
		C262.97,342.08,261.69,344.62,260.91,347.51z"/>
	<path class="st1" d="M421.27,393.5c0-24.88,0-49.74,0-74.65c5.5,0,10.97,0,16.49,0c0,24.87,0,49.73,0,74.65
		C432.28,393.5,426.8,393.5,421.27,393.5z"/>
	<path class="st1" d="M437.76,310.97c-5.49,0-10.95,0-16.47,0c0-5.46,0-10.91,0-16.42c5.48,0,10.94,0,16.47,0
		C437.76,300.02,437.76,305.47,437.76,310.97z"/>
	<path class="st1" d="M391.21,356.15c-0.07,11.56-8.21,20.45-19.71,21.87c-12.6,1.56-21.86-7.97-23.31-18.01
		c-1.05-7.32,0.65-13.92,5.72-19.41c4.38-4.75,9.95-6.83,16.37-6.57c10.47,0.43,19.36,8.66,20.67,19.05
		C391.06,354.1,391.12,355.13,391.21,356.15z"/>
	<path class="st1" d="M509.57,356.04c0.03,10.36-7.94,19.84-18.1,21.35c-8.02,1.2-17.03-2.58-21.6-10.84
		c-4.8-8.67-3.54-19.68,3.19-26.42c10.33-10.36,27.42-8.18,34.38,6.27C508.9,349.43,509.57,352.68,509.57,356.04z"/>
	<path class="st1" d="M260.91,347.51c0.78-2.89,2.06-5.44,3.93-7.65c4.73-5.59,10.76-8.14,18.1-7.58c4.6,0.35,8.83,1.65,12.41,4.66
		c3.22,2.7,5.18,6.21,6.39,10.19c0.03,0.1,0,0.22,0,0.38C288.16,347.51,274.61,347.51,260.91,347.51z"/>
</g>
</svg>
